<svg version="1.1" id="Layer_1" xmlns="http://www.w3.org/2000/svg" xmlns:xlink="http://www.w3.org/1999/xlink" x="0px" y="0px"
	 width="100%" viewBox="0 0 677 369" enable-background="new 0 0 677 369" xml:space="preserve">
<path fill="#000000" opacity="1.000000" stroke="none" 
	d="
M441.000000,370.000000 
	C295.534637,370.000000 150.569244,369.986115 5.603948,370.081573 
	C2.050416,370.083923 0.885824,369.590302 0.890293,365.605927 
	C1.025040,245.468109 1.023576,125.330086 0.890807,5.192264 
	C0.886649,1.429981 1.855062,0.914704 5.305861,0.916144 
	C228.085938,1.009096 450.866058,1.007494 673.646179,0.928130 
	C676.961365,0.926949 678.123779,1.245391 678.119080,5.144279 
	C677.973450,125.448700 677.979248,245.753342 678.101929,366.057831 
	C678.105530,369.597198 677.243774,370.092346 673.943848,370.087524 
	C596.462708,369.974609 518.981323,370.000000 441.000000,370.000000 
z"/>
<path fill="#913423" opacity="1.000000" stroke="none" 
	d="
M357.773712,351.649261 
	C356.614441,351.855621 355.763428,351.945221 354.484436,352.070160 
	C352.314178,352.857086 350.479279,352.349518 348.238708,352.499969 
	C342.624786,352.499969 337.464874,352.499969 331.851929,352.499969 
	C329.594299,352.478119 327.788727,352.552399 325.585754,352.232666 
	C321.968536,351.806763 318.646881,352.718628 315.151031,350.986267 
	C313.391968,350.182373 311.924469,350.684448 310.246948,350.208984 
	C299.132782,349.293091 289.085236,345.399567 279.241272,341.465027 
	C259.835480,333.708679 242.324905,322.711487 227.176819,307.684448 
	C226.713562,306.759674 226.136368,306.516907 225.227722,306.187073 
	C224.971985,305.988220 225.022614,305.974762 225.020004,306.000824 
	C224.789810,305.790405 224.559265,305.556885 224.149597,305.154358 
	C223.973434,304.982452 224.025467,304.976562 224.019226,305.001984 
	C223.542480,304.413452 223.181122,303.697449 222.197266,303.170532 
	C221.958832,303.000488 222.010452,302.984894 222.006378,303.011536 
	C221.729752,302.757874 221.479065,302.459076 221.142700,301.870758 
	C196.887924,277.148254 182.815063,247.629532 176.992310,213.569473 
	C175.995621,211.599594 176.742447,209.836868 176.338165,207.847717 
	C176.137634,206.970779 176.063828,206.436127 175.972275,205.495605 
	C174.973984,202.842560 175.769943,200.470718 175.358124,197.801804 
	C173.910294,195.409866 173.905823,193.150299 174.112732,190.439346 
	C174.825180,188.163483 174.358170,186.245346 174.500015,183.951004 
	C174.523087,181.601700 174.446686,179.663254 174.758118,177.362823 
	C174.984375,176.433228 175.007614,175.867386 175.128326,174.888031 
	C175.839218,171.889069 175.297714,169.255692 175.771667,166.330750 
	C176.010162,165.732437 176.027008,165.458603 176.135925,164.783691 
	C176.821701,162.452637 176.291550,160.455856 176.797974,158.210693 
	C177.502121,148.142456 180.535980,138.911957 183.718918,129.843414 
	C189.048599,114.658592 196.206116,100.329628 205.832352,87.300423 
	C209.941635,81.738472 214.084259,76.241447 219.274490,71.200989 
	C220.208710,70.734436 220.482407,70.161705 220.805374,69.218094 
	C221.000793,68.950455 221.016388,69.007996 220.986633,69.006393 
	C221.588364,68.550041 222.299026,68.181221 222.833160,67.195618 
	C223.004944,66.956894 223.013412,67.019447 222.981934,67.017166 
	C223.197266,66.799889 223.434097,66.574394 223.831543,66.162125 
	C224.002136,65.985840 224.006546,66.006622 223.996185,66.004257 
	C224.217285,65.781952 224.444901,65.558128 224.834930,65.158089 
	C225.001144,64.985756 225.003479,65.004295 224.995148,65.000252 
	C225.291855,64.771919 225.598114,64.549271 226.041351,64.078873 
	C239.547623,51.613239 254.066727,41.120308 270.679138,33.654522 
	C283.351593,27.959391 296.484924,23.784885 310.471069,20.976547 
	C312.449158,20.013924 314.202942,20.735573 316.198730,20.352066 
	C316.770386,20.167524 316.996216,20.098894 317.572449,19.979622 
	C319.811584,19.030432 321.827209,19.738554 324.117889,19.350088 
	C325.355194,19.150166 326.240112,19.067719 327.571350,18.980415 
	C335.354187,17.934999 342.724945,18.719229 350.511414,18.771725 
	C351.839783,18.996761 352.734741,19.011629 354.067261,19.121075 
	C356.443939,19.826384 358.448730,19.305023 360.723999,19.755291 
	C361.311096,19.977100 361.582764,20.002024 362.250793,20.128986 
	C364.248291,20.804838 365.931946,20.287931 367.848572,20.796001 
	C377.304108,23.495733 386.612183,25.362261 395.581085,28.680943 
	C414.141998,35.548859 430.652557,45.590324 445.889740,58.204601 
	C464.607635,73.700455 478.598877,92.792450 489.306274,114.223648 
	C494.786682,125.192871 498.676788,137.048126 501.057434,149.235916 
	C501.371307,150.842529 501.701385,152.445984 501.995056,154.448883 
	C503.016449,156.412430 502.250732,158.185272 502.664948,160.181473 
	C502.851166,160.765625 502.908234,161.006500 502.982971,161.618240 
	C504.062958,163.872360 503.212250,165.929535 503.667023,168.233643 
	C504.045776,169.767960 504.293701,170.948532 504.664673,172.474060 
	C504.219421,174.770920 504.621826,176.769958 504.499969,179.176239 
	C504.499969,183.710541 504.499969,187.812149 504.499969,192.356018 
	C504.477661,194.572403 504.553497,196.347641 504.240051,198.517578 
	C504.014008,199.826096 503.987579,200.737717 503.863403,202.094833 
	C503.191284,204.480743 503.691284,206.481186 503.238403,208.753555 
	C503.022217,209.298630 503.003876,209.529587 502.906128,210.098938 
	C502.140472,212.087250 502.726562,213.841293 502.194305,215.818665 
	C500.650726,229.598938 496.030731,242.225723 490.624237,254.388580 
	C482.193695,273.354614 470.488190,290.309174 455.595490,304.910645 
	C433.158691,326.908661 406.837616,341.940308 376.103088,348.973785 
	C372.092346,349.891602 368.034637,350.604218 363.668640,351.568848 
	C361.597137,351.368866 359.837219,351.514069 357.773712,351.649261 
z"/>
<path fill="#B08A82" opacity="1.000000" stroke="none" 
	d="
M350.717346,18.617157 
	C343.613586,18.999996 336.282318,19.018101 328.484375,19.005882 
	C331.184174,16.791359 334.707642,18.271238 338.049347,18.098862 
	C342.182556,17.885660 346.341827,18.178320 350.717346,18.617157 
z"/>
<path fill="#9C584B" opacity="1.000000" stroke="none" 
	d="
M331.381256,352.569275 
	C336.331818,352.137207 341.791840,352.125336 347.698212,352.464508 
	C342.726624,352.873505 337.308655,352.931458 331.381256,352.569275 
z"/>
<path fill="#A86B5F" opacity="1.000000" stroke="none" 
	d="
M504.588013,192.627869 
	C504.150604,188.690613 504.110992,184.271210 504.451813,179.409424 
	C504.883423,183.359940 504.934631,187.752853 504.588013,192.627869 
z"/>
<path fill="#A9827A" opacity="1.000000" stroke="none" 
	d="
M175.639908,166.215515 
	C176.143890,168.632843 176.055008,171.240112 175.295319,174.136719 
	C175.204987,171.790970 174.548813,169.102600 175.639908,166.215515 
z"/>
<path fill="#B28278" opacity="1.000000" stroke="none" 
	d="
M175.213562,197.825180 
	C175.517944,199.708542 175.789032,201.989288 176.007324,204.679901 
	C173.876923,203.005829 175.527618,200.501572 175.213562,197.825180 
z"/>
<path fill="#B08A82" opacity="1.000000" stroke="none" 
	d="
M503.389038,208.880493 
	C502.850555,207.074310 502.989532,205.112915 503.688232,202.869354 
	C503.756287,204.591324 503.746918,206.642334 503.389038,208.880493 
z"/>
<path fill="#A9827A" opacity="1.000000" stroke="none" 
	d="
M176.682892,158.122955 
	C177.123917,159.890793 177.139038,161.858978 176.338318,164.070480 
	C176.138412,162.363220 175.538635,160.333801 176.682892,158.122955 
z"/>
<path fill="#A9827A" opacity="1.000000" stroke="none" 
	d="
M503.836487,168.205383 
	C503.002380,166.723846 502.870209,164.765091 502.982025,162.381561 
	C505.037262,163.672287 503.631073,165.871506 503.836487,168.205383 
z"/>
<path fill="#7F6F62" opacity="1.000000" stroke="none" 
	d="
M174.660828,177.264893 
	C174.986710,179.012100 175.012268,181.025116 174.990448,183.467255 
	C174.840179,184.175690 174.737244,184.454987 174.364166,184.378784 
	C173.892456,181.847183 173.685608,179.670853 174.660828,177.264893 
z"/>
<path fill="#B08A82" opacity="1.000000" stroke="none" 
	d="
M360.846832,19.608578 
	C359.041473,20.176041 357.075531,20.049786 354.830475,19.315113 
	C356.554657,19.232094 358.604431,19.248535 360.846832,19.608578 
z"/>
<path fill="#B08A82" opacity="1.000000" stroke="none" 
	d="
M324.093842,19.201736 
	C322.546875,19.498512 320.623474,19.764408 318.311462,19.979645 
	C319.630493,17.965187 321.790009,19.455040 324.093842,19.201736 
z"/>
<path fill="#B28278" opacity="1.000000" stroke="none" 
	d="
M357.871521,351.810059 
	C359.203186,351.221191 360.940735,350.674316 363.062744,351.488892 
	C361.651581,351.768555 359.964569,351.811310 357.871521,351.810059 
z"/>
<path fill="#AF938A" opacity="1.000000" stroke="none" 
	d="
M174.050201,184.448792 
	C174.094025,184.023315 174.512375,183.918579 174.727737,183.907486 
	C174.869904,185.751724 174.796707,187.607040 174.446533,189.739182 
	C174.115158,188.302078 174.060760,186.588165 174.050201,184.448792 
z"/>
<path fill="#A9827A" opacity="1.000000" stroke="none" 
	d="
M330.466919,352.119568 
	C330.871796,352.149109 330.923187,352.494476 330.941620,352.668091 
	C329.165100,352.943542 327.359497,353.388824 325.388123,352.349579 
	C326.811615,352.046112 328.436829,352.068054 330.466919,352.119568 
z"/>
<path fill="#AF938A" opacity="1.000000" stroke="none" 
	d="
M504.151093,193.522842 
	C504.190216,193.110001 504.511017,193.094025 504.671295,193.083954 
	C504.794037,194.892532 504.756470,196.711151 504.379700,198.722122 
	C504.064270,197.254868 504.088135,195.595276 504.151093,193.522842 
z"/>
<path fill="#B08A82" opacity="1.000000" stroke="none" 
	d="
M504.893066,178.535400 
	C504.832245,178.967041 504.503876,178.941681 504.339844,178.928406 
	C504.213318,177.088699 504.250854,175.262238 504.538025,173.127411 
	C504.843079,174.580597 504.898499,176.342194 504.893066,178.535400 
z"/>
<path fill="#B08A82" opacity="1.000000" stroke="none" 
	d="
M348.538818,352.867706 
	C348.144562,352.815552 348.190247,352.526520 348.198425,352.380707 
	C349.878876,352.150391 351.551178,352.065857 353.639954,352.043427 
	C352.596649,353.937103 350.637390,352.626373 348.538818,352.867706 
z"/>
<path fill="#9B766E" opacity="1.000000" stroke="none" 
	d="
M502.283386,215.876633 
	C501.902527,214.396805 501.754669,212.670624 502.654999,210.734436 
	C502.943848,212.179672 503.464264,213.940475 502.283386,215.876633 
z"/>
<path fill="#A9827A" opacity="1.000000" stroke="none" 
	d="
M176.166809,207.874054 
	C176.504791,209.138535 176.798141,210.771622 177.059189,212.782990 
	C174.986008,211.841675 176.349380,209.895889 176.166809,207.874054 
z"/>
<path fill="#A9827A" opacity="1.000000" stroke="none" 
	d="
M502.837952,160.158264 
	C501.951691,158.982224 501.921356,157.301071 501.960693,155.227921 
	C503.813965,156.209518 502.768127,158.107986 502.837952,160.158264 
z"/>
<path fill="#B08A82" opacity="1.000000" stroke="none" 
	d="
M367.962830,20.650646 
	C366.517029,20.805180 364.889648,20.620369 362.954712,20.333290 
	C364.359955,20.164467 366.080566,19.600388 367.962830,20.650646 
z"/>
<path fill="#AF8076" opacity="1.000000" stroke="none" 
	d="
M316.174316,20.188881 
	C314.972107,20.913429 313.328796,21.162348 311.249695,21.020260 
	C312.230835,19.044962 314.142365,20.318579 316.174316,20.188881 
z"/>
<path fill="#9B766E" opacity="1.000000" stroke="none" 
	d="
M310.176514,350.299988 
	C311.362885,350.149292 312.762573,350.306061 314.455017,350.648254 
	C313.284729,350.958649 311.804993,351.404510 310.176514,350.299988 
z"/>
<path fill="#86514B" opacity="1.000000" stroke="none" 
	d="
M222.732178,67.076790 
	C222.514816,67.571136 222.024673,68.185379 221.245697,68.902206 
	C221.457718,68.402084 221.958557,67.799377 222.732178,67.076790 
z"/>
<path fill="#805A52" opacity="1.000000" stroke="none" 
	d="
M222.135956,303.233459 
	C222.591599,303.476654 223.224380,303.952820 223.935059,304.728210 
	C223.446350,304.507080 222.879730,303.986755 222.135956,303.233459 
z"/>
<path fill="#86514B" opacity="1.000000" stroke="none" 
	d="
M226.022217,63.879387 
	C226.399017,64.524773 226.000427,64.806862 225.203049,64.981796 
	C225.280289,64.640579 225.573792,64.284943 226.022217,63.879387 
z"/>
<path fill="#86514B" opacity="1.000000" stroke="none" 
	d="
M220.731674,69.131134 
	C220.684143,69.503815 220.367477,70.057167 219.788818,70.814636 
	C219.838715,70.449760 220.150635,69.880783 220.731674,69.131134 
z"/>
<path fill="#805A52" opacity="1.000000" stroke="none" 
	d="
M225.140900,306.258514 
	C225.512085,306.298157 226.052200,306.608093 226.800232,307.168701 
	C226.442062,307.122498 225.875931,306.825653 225.140900,306.258514 
z"/>
<path fill="#805A52" opacity="1.000000" stroke="none" 
	d="
M221.044525,301.927307 
	C221.312286,301.883942 221.586411,302.170715 221.931412,302.747864 
	C221.685150,302.777954 221.368011,302.517731 221.044525,301.927307 
z"/>
<path fill="#86514B" opacity="1.000000" stroke="none" 
	d="
M224.775269,65.091446 
	C224.878387,65.299461 224.683044,65.558418 224.200485,65.882256 
	C224.079391,65.667603 224.267258,65.399353 224.775269,65.091446 
z"/>
<path fill="#86514B" opacity="1.000000" stroke="none" 
	d="
M223.771896,66.094048 
	C223.796860,66.245911 223.591583,66.505974 223.168396,66.890465 
	C223.147522,66.744011 223.344589,66.473129 223.771896,66.094048 
z"/>
<path fill="#805A52" opacity="1.000000" stroke="none" 
	d="
M224.083038,305.213867 
	C224.241364,305.181946 224.509308,305.381439 224.897324,305.803894 
	C224.742493,305.833008 224.467575,305.639130 224.083038,305.213867 
z"/>
<path fill="#000000" opacity="1.000000" stroke="none" 
	d="
M491.799988,162.767487 
	C491.300964,166.585190 493.289673,169.865906 493.093872,173.796204 
	C493.879913,180.463654 493.354889,186.716995 493.315796,193.407501 
	C490.261597,237.591019 472.551025,274.239563 439.852875,303.352234 
	C425.478271,316.150574 409.087036,325.786346 390.789154,332.395569 
	C378.627869,336.788208 366.326630,339.710968 353.101440,341.114441 
	C349.354980,341.830414 346.029572,341.374084 342.278687,341.357727 
	C340.988525,341.476532 340.138367,341.704346 338.952545,341.951599 
	C335.747467,340.977875 332.771729,341.782135 329.488586,341.303589 
	C320.686676,341.654785 312.623779,339.451538 304.541504,337.645996 
	C288.032623,333.958008 272.791931,327.124420 258.511780,318.159973 
	C246.534760,310.641327 236.127594,301.197845 226.555634,290.865601 
	C206.370651,269.077423 193.965820,243.414459 188.881912,214.176788 
	C188.713867,213.210281 188.295593,212.287277 187.884094,210.926422 
	C187.200043,208.877472 187.688644,207.171921 187.218201,205.225220 
	C186.999527,204.430573 186.988632,203.929474 186.893814,203.061874 
	C186.149017,200.729095 186.700455,198.689819 186.254822,196.374390 
	C186.028641,194.952072 185.996445,193.854279 185.902939,192.349182 
	C185.131271,187.624741 185.632431,183.279709 185.688492,178.505920 
	C186.035568,177.010574 186.236649,175.957626 186.584686,174.615051 
	C186.307755,172.317932 186.553055,170.288574 186.655975,167.851273 
	C186.839355,167.204742 186.900375,166.974823 186.978424,166.388458 
	C188.023010,164.508560 187.240051,162.783035 187.670593,160.846558 
	C190.030396,151.572083 191.824295,142.513229 194.943665,133.809250 
	C201.642075,115.118645 211.402985,98.266434 224.296387,83.094673 
	C242.095596,62.150230 264.382294,47.883236 289.800751,38.290180 
	C297.150177,35.516468 305.025452,34.136166 313.055725,31.972593 
	C315.044830,31.152763 316.733704,31.696465 318.635193,31.218061 
	C319.152802,30.984945 319.395111,30.976137 319.991211,30.882988 
	C322.230865,30.153355 324.193573,30.712545 326.395935,30.217327 
	C327.555084,29.994225 328.421051,29.985340 329.713684,29.902395 
	C336.380981,29.105263 342.641479,29.655968 349.343048,29.665951 
	C350.620789,29.865721 351.446991,29.935194 352.688782,30.016693 
	C354.660950,31.002996 356.398865,30.242199 358.355286,30.691113 
	C358.922241,30.886005 359.159668,30.932991 359.760071,30.990639 
	C361.641663,32.035702 363.365265,31.228844 365.291321,31.683622 
	C370.860596,33.204243 376.114197,34.540424 381.343597,35.965279 
	C410.971741,44.038040 435.475128,60.410595 455.478333,83.303680 
	C468.454987,98.155106 478.046387,115.224129 484.622620,133.991867 
	C487.248840,141.486771 488.506409,149.270599 491.063354,157.171646 
	C491.815491,159.173553 491.300934,160.861160 491.799988,162.767487 
z"/>
<path fill="#B28278" opacity="1.000000" stroke="none" 
	d="
M493.383484,193.511734 
	C493.152679,187.611313 493.134094,181.368546 493.147888,174.677200 
	C494.570068,180.514771 494.177795,186.839981 493.383484,193.511734 
z"/>
<path fill="#A56557" opacity="1.000000" stroke="none" 
	d="
M349.426727,29.660698 
	C343.546875,29.836706 337.299133,29.877169 330.595886,29.872982 
	C336.423950,28.317610 342.739868,28.825159 349.426727,29.660698 
z"/>
<path fill="#994638" opacity="1.000000" stroke="none" 
	d="
M185.673218,178.431488 
	C185.873383,182.384430 185.912277,186.705322 185.896393,191.484039 
	C184.425705,187.593826 184.811584,183.200592 185.673218,178.431488 
z"/>
<path fill="#B08A82" opacity="1.000000" stroke="none" 
	d="
M342.191223,341.466248 
	C345.158020,341.211395 348.477295,341.174072 352.224152,341.170258 
	C349.318176,342.117157 345.951752,342.338348 342.191223,341.466248 
z"/>
<path fill="#B08A82" opacity="1.000000" stroke="none" 
	d="
M329.425140,341.390198 
	C332.117157,341.040833 335.129639,340.563171 338.362427,341.680298 
	C335.656647,341.856171 332.696350,341.741333 329.425140,341.390198 
z"/>
<path fill="#AC7C73" opacity="1.000000" stroke="none" 
	d="
M186.028687,196.441055 
	C187.979462,197.774246 186.645355,199.959839 186.851624,202.308228 
	C185.914246,200.827621 185.906219,198.836761 186.028687,196.441055 
z"/>
<path fill="#AF8076" opacity="1.000000" stroke="none" 
	d="
M186.677704,167.752289 
	C186.854187,169.443924 186.930038,171.453186 186.868774,173.893921 
	C185.331879,172.273544 186.139603,170.167145 186.677704,167.752289 
z"/>
<path fill="#AF8076" opacity="1.000000" stroke="none" 
	d="
M326.316345,30.015684 
	C325.081421,31.952568 322.964172,30.656017 320.715485,30.840624 
	C322.128113,29.938431 324.024872,29.903921 326.316345,30.015684 
z"/>
<path fill="#B28278" opacity="1.000000" stroke="none" 
	d="
M186.980179,205.302582 
	C189.020966,206.243698 187.620148,208.159866 187.821976,210.146301 
	C187.499451,208.897064 187.224686,207.285294 186.980179,205.302582 
z"/>
<path fill="#A9827A" opacity="1.000000" stroke="none" 
	d="
M187.651947,160.812012 
	C187.916428,162.232697 188.385818,163.960281 187.327866,165.843246 
	C187.163589,164.390991 187.331726,162.749969 187.651947,160.812012 
z"/>
<path fill="#A9827A" opacity="1.000000" stroke="none" 
	d="
M492.034515,162.676697 
	C490.053650,161.771072 491.277618,159.888718 491.161255,157.920425 
	C492.029144,159.053864 492.140930,160.662827 492.034515,162.676697 
z"/>
<path fill="#9B766E" opacity="1.000000" stroke="none" 
	d="
M365.326996,31.653257 
	C363.923309,31.941206 362.210815,32.458576 360.340576,31.303707 
	C361.781403,30.946692 363.452576,30.761065 365.326996,31.653257 
z"/>
<path fill="#9B766E" opacity="1.000000" stroke="none" 
	d="
M318.543549,30.988678 
	C317.610565,32.757183 315.785370,31.864527 313.801208,31.881580 
	C314.903931,30.859806 316.531921,30.875162 318.543549,30.988678 
z"/>
<path fill="#9B766E" opacity="1.000000" stroke="none" 
	d="
M358.386230,30.665154 
	C356.951904,30.930346 355.206238,31.419039 353.302368,30.350441 
	C354.791748,29.900330 356.474884,29.816826 358.386230,30.665154 
z"/>
<path fill="#923424" opacity="1.000000" stroke="none" 
	d="
M483.179749,212.868683 
	C482.258759,223.186691 478.696136,232.463181 475.031067,241.618942 
	C470.613678,252.654205 464.784698,263.018097 457.826965,272.677094 
	C444.922119,290.592102 428.896484,305.124603 409.570496,315.816315 
	C396.548523,323.020447 382.744720,328.331024 367.623383,330.972168 
	C365.635864,332.004883 363.835724,331.260864 361.806580,331.670044 
	C358.435303,333.676361 355.061951,332.780670 351.377136,333.019958 
	C344.260498,334.073608 337.559174,333.276947 330.432739,333.270142 
	C326.450745,332.617706 322.762024,333.808502 318.917114,331.970093 
	C316.875916,331.149719 315.155121,331.714996 313.217529,331.199829 
	C302.985413,329.970154 293.720490,326.514862 284.575134,322.801727 
	C263.639893,314.301819 245.912170,301.078857 230.998657,284.331573 
	C219.108246,270.979095 209.728134,256.036499 203.567581,238.907166 
	C199.204437,226.775482 196.207932,214.589676 194.947235,201.429474 
	C194.113815,199.257599 194.662796,197.410019 194.500015,195.161438 
	C194.500015,188.876877 194.500015,183.049759 194.500015,176.763672 
	C194.519775,174.473038 194.452621,172.640549 194.734924,170.389709 
	C194.957977,169.413879 194.999329,168.858017 195.138336,167.895660 
	C195.721542,165.775253 195.502609,164.042267 195.326263,161.988739 
	C195.494675,161.205963 195.712875,160.746201 196.027115,160.049957 
	C196.853928,158.466125 196.306412,156.984863 196.788300,155.306519 
	C199.181137,141.216202 203.989578,128.291870 210.513412,116.017998 
	C217.202484,103.433220 225.669830,92.146339 235.574509,81.835121 
	C252.794220,63.908611 273.323578,51.528481 296.937134,44.142384 
	C302.258209,42.477997 307.747162,41.350372 313.564178,40.001354 
	C315.508270,38.949730 317.265076,39.773251 319.228973,39.327797 
	C319.789612,39.130295 320.013062,39.067513 320.582275,38.964462 
	C322.597076,38.059021 324.405151,38.729717 326.476318,38.306816 
	C328.854858,37.690426 331.032318,38.467503 333.347107,37.285912 
	C337.793243,37.959267 341.937042,37.241917 346.460449,37.706894 
	C350.858856,37.625969 354.734375,38.487316 359.091736,39.133278 
	C361.171997,39.806339 362.880951,39.295231 364.829041,39.792198 
	C377.460938,42.037594 389.175293,46.286110 400.454834,51.350220 
	C412.246338,56.644165 423.139740,63.708790 432.895416,72.349037 
	C434.602661,73.861053 436.442993,75.222755 438.461609,76.879654 
	C439.050629,77.217606 439.366028,77.390198 439.851074,77.807968 
	C440.059662,77.983559 440.001312,78.001213 440.002869,77.970764 
	C440.216187,78.199570 440.442261,78.445709 440.874207,78.840691 
	C441.065765,79.002693 440.995544,79.005600 440.994385,78.970482 
	C441.209656,79.194717 441.438965,79.442146 441.873352,79.842438 
	C442.065521,80.007309 441.992554,80.007561 441.992371,79.971069 
	C442.209198,80.193832 442.438110,80.442032 442.873230,80.842415 
	C443.065460,81.007523 442.992523,81.007446 442.992493,80.970978 
	C443.208130,81.192688 443.435791,81.439743 443.869019,81.837837 
	C444.060516,82.001877 443.996979,81.999649 444.005310,81.968964 
	C444.251160,82.215721 444.481262,82.499168 444.799438,83.045837 
	C465.579346,106.266548 479.704773,132.425400 484.187805,163.367065 
	C484.616180,166.323990 485.008148,169.240753 485.023987,172.670563 
	C486.074463,181.131226 485.277466,189.170502 485.224731,197.625854 
	C484.997650,198.291794 484.985199,198.524582 484.880432,199.094620 
	C484.168976,201.394547 484.697876,203.423935 484.235901,205.723389 
	C484.012238,206.297470 483.993439,206.555801 483.879700,207.190857 
	C483.172760,209.197357 483.732330,210.920685 483.179749,212.868683 
z"/>
<path fill="#AF938A" opacity="1.000000" stroke="none" 
	d="
M485.379028,197.824615 
	C485.004181,190.054550 484.998291,182.050095 485.001526,173.585358 
	C487.085510,176.314133 485.818939,179.842010 485.925537,183.201538 
	C486.077545,187.991058 485.826721,192.793350 485.379028,197.824615 
z"/>
<path fill="#B9968F" opacity="1.000000" stroke="none" 
	d="
M330.212341,333.461639 
	C336.656616,333.061310 343.326172,333.029663 350.459106,333.009583 
	C344.167419,335.143616 337.266235,333.568878 330.212341,333.461639 
z"/>
<path fill="#9A4D3E" opacity="1.000000" stroke="none" 
	d="
M194.636993,175.555939 
	C194.858200,181.945282 194.889481,188.102859 194.542221,194.699921 
	C194.106415,189.023468 194.049149,182.907486 194.073944,176.319794 
	C194.253006,175.673431 194.350021,175.498810 194.636993,175.555939 
z"/>
<path fill="#BBA69E" opacity="1.000000" stroke="none" 
	d="
M346.612518,37.549332 
	C342.707581,37.816093 338.541687,37.765141 334.037720,37.428482 
	C337.916931,37.172390 342.134277,37.202003 346.612518,37.549332 
z"/>
<path fill="#B28278" opacity="1.000000" stroke="none" 
	d="
M484.373047,205.838959 
	C483.812042,204.020081 483.913635,202.028748 484.667175,199.757614 
	C484.838074,201.501724 485.416809,203.577789 484.373047,205.838959 
z"/>
<path fill="#B08A82" opacity="1.000000" stroke="none" 
	d="
M194.119324,195.531372 
	C194.163666,195.139435 194.494354,195.172638 194.658539,195.196564 
	C194.882202,196.870316 194.941681,198.520142 194.963898,200.583557 
	C193.087158,199.566986 194.361145,197.614212 194.119324,195.531372 
z"/>
<path fill="#9B766E" opacity="1.000000" stroke="none" 
	d="
M313.186890,331.260651 
	C314.612854,330.970154 316.318054,330.722412 318.209625,331.651550 
	C316.799194,331.966187 315.081665,332.459961 313.186890,331.260651 
z"/>
<path fill="#A9827A" opacity="1.000000" stroke="none" 
	d="
M361.829010,331.846924 
	C363.020874,330.928986 364.739044,330.958160 366.837799,330.943604 
	C365.830414,332.752472 363.917969,331.805878 361.829010,331.846924 
z"/>
<path fill="#B08A82" opacity="1.000000" stroke="none" 
	d="
M483.313568,212.972977 
	C483.155426,211.503418 483.336517,209.841064 483.651215,207.873169 
	C483.857758,209.308090 484.421143,211.061005 483.313568,212.972977 
z"/>
<path fill="#AF938A" opacity="1.000000" stroke="none" 
	d="
M326.429810,38.114914 
	C325.251740,39.252449 323.444458,38.956337 321.313232,38.973911 
	C322.368561,37.075905 324.333099,38.359161 326.429810,38.114914 
z"/>
<path fill="#B28278" opacity="1.000000" stroke="none" 
	d="
M195.132416,162.075851 
	C196.652161,163.367981 195.873505,165.134232 195.333817,167.189819 
	C195.153442,165.821457 195.070908,164.153717 195.132416,162.075851 
z"/>
<path fill="#B28278" opacity="1.000000" stroke="none" 
	d="
M364.940796,39.652901 
	C363.433014,40.190548 361.775238,40.059166 359.856934,39.335258 
	C361.281433,39.169720 363.028717,38.585125 364.940796,39.652901 
z"/>
<path fill="#A9827A" opacity="1.000000" stroke="none" 
	d="
M319.203552,39.149670 
	C318.049103,40.046837 316.403748,40.147232 314.344421,40.022675 
	C315.310638,38.224651 317.175293,39.191883 319.203552,39.149670 
z"/>
<path fill="#B08A82" opacity="1.000000" stroke="none" 
	d="
M194.844025,175.374023 
	C194.826935,175.787720 194.492477,175.829468 194.324234,175.838776 
	C194.180588,174.016525 194.205185,172.184967 194.573181,170.161591 
	C194.898117,171.633270 194.879608,173.296799 194.844025,175.374023 
z"/>
<path fill="#9B766E" opacity="1.000000" stroke="none" 
	d="
M196.721527,155.256516 
	C197.029877,156.453903 197.285919,157.908615 196.337540,159.534698 
	C195.978180,158.353958 195.618225,156.879089 196.721527,155.256516 
z"/>
<path fill="#975D56" opacity="1.000000" stroke="none" 
	d="
M439.948578,77.700005 
	C439.724762,77.836876 439.389893,77.690186 438.878174,77.324478 
	C439.080078,77.209114 439.458801,77.312782 439.948578,77.700005 
z"/>
<path fill="#975D56" opacity="1.000000" stroke="none" 
	d="
M444.899017,82.994232 
	C444.644531,83.029312 444.392853,82.756592 444.077393,82.211075 
	C444.309692,82.187660 444.605743,82.437042 444.899017,82.994232 
z"/>
<path fill="#975D56" opacity="1.000000" stroke="none" 
	d="
M443.984283,81.738358 
	C443.790253,81.794983 443.520020,81.588089 443.121094,81.157837 
	C443.297668,81.114609 443.602875,81.294724 443.984283,81.738358 
z"/>
<path fill="#975D56" opacity="1.000000" stroke="none" 
	d="
M442.988159,80.743088 
	C442.794403,80.798996 442.523315,80.590477 442.122223,80.158264 
	C442.298401,80.115936 442.604614,80.297295 442.988159,80.743088 
z"/>
<path fill="#975D56" opacity="1.000000" stroke="none" 
	d="
M440.989929,78.740494 
	C440.788391,78.803635 440.511047,78.604576 440.119019,78.172913 
	C440.307617,78.119637 440.610840,78.298965 440.989929,78.740494 
z"/>
<path fill="#975D56" opacity="1.000000" stroke="none" 
	d="
M441.988312,79.743088 
	C441.794067,79.799469 441.522644,79.591621 441.122223,79.159576 
	C441.299194,79.116531 441.605133,79.297691 441.988312,79.743088 
z"/>
<path fill="#000000" opacity="1.000000" stroke="none" 
	d="
M475.343842,203.283875 
	C472.979248,212.550491 471.390350,221.615707 468.376587,230.380768 
	C462.277496,248.118958 453.057129,263.949097 440.690125,277.988800 
	C421.902252,299.317719 398.548828,313.224152 371.142365,320.360413 
	C363.829651,322.264557 356.360382,323.588562 348.338989,324.101379 
	C343.257629,324.881653 338.589600,324.357086 333.492401,324.303986 
	C331.659454,324.092285 330.268341,324.032074 328.459595,323.944946 
	C326.452179,323.070831 324.725555,323.716400 322.744629,323.332031 
	C305.263367,321.221588 289.413910,315.582306 274.351379,307.155487 
	C261.906433,300.193085 250.634521,291.748230 241.055511,281.364319 
	C226.388138,265.464508 215.434601,247.287979 209.668579,226.152252 
	C207.980972,219.966263 206.340485,213.789093 204.925629,207.103851 
	C204.129013,205.052399 204.703247,203.318054 204.233276,201.355759 
	C203.997330,199.611725 203.975571,198.162567 203.902451,196.281464 
	C203.161789,193.815903 203.624008,191.722778 203.639999,189.225555 
	C202.985184,187.356445 202.955704,185.836548 203.190918,183.818420 
	C203.956940,179.979187 203.246933,176.545212 203.659790,172.804138 
	C203.857834,171.918365 203.930756,171.377609 203.997253,170.426056 
	C205.034439,168.448334 204.233658,166.679230 204.671051,164.689697 
	C207.834915,148.894836 212.372681,133.981918 219.952286,120.058861 
	C236.402161,89.841949 260.393829,68.343086 292.597565,55.890831 
	C302.379791,52.108330 312.604279,50.500061 323.067932,47.878460 
	C325.750305,47.181530 328.065460,47.685009 330.683105,47.270294 
	C336.689911,47.062321 342.360596,47.038818 348.496399,47.036736 
	C350.886322,47.993614 352.946167,47.245678 355.279175,47.666130 
	C380.527649,51.826435 403.344696,60.664486 423.326813,76.412758 
	C440.123810,89.650734 452.708527,106.134880 462.065948,125.219139 
	C468.206238,137.742142 472.729309,150.767685 474.129059,164.746704 
	C474.191650,165.371735 474.624725,165.959686 475.050049,166.961166 
	C475.807648,169.022324 475.314056,170.762192 475.765625,172.758911 
	C475.987000,174.456070 476.009003,175.844925 476.096069,177.645493 
	C476.872498,183.031906 476.356812,188.031052 476.314453,193.464020 
	C476.108612,195.002228 476.047638,196.094299 475.963379,197.596634 
	C475.040497,199.581543 475.729614,201.308701 475.343842,203.283875 
z"/>
<path fill="#9C5142" opacity="1.000000" stroke="none" 
	d="
M476.332336,193.542419 
	C476.131927,188.933212 476.094238,183.956268 476.108887,178.518280 
	C477.635406,183.066284 477.184937,188.117844 476.332336,193.542419 
z"/>
<path fill="#A35B4E" opacity="1.000000" stroke="none" 
	d="
M333.416748,324.326508 
	C337.696167,324.125153 342.341797,324.097839 347.443939,324.120392 
	C343.224792,325.569061 338.507599,325.194061 333.416748,324.326508 
z"/>
<path fill="#AF8076" opacity="1.000000" stroke="none" 
	d="
M203.692688,172.804199 
	C203.836502,175.968414 204.525223,179.486969 203.389404,183.168961 
	C202.888702,179.935150 202.752411,176.520340 203.692688,172.804199 
z"/>
<path fill="#AC7C73" opacity="1.000000" stroke="none" 
	d="
M330.613220,47.039833 
	C328.963531,49.108200 326.501587,47.552639 323.867798,47.811462 
	C325.667877,47.007874 327.923615,46.879742 330.613220,47.039833 
z"/>
<path fill="#B08A82" opacity="1.000000" stroke="none" 
	d="
M203.537842,189.112030 
	C203.815582,190.857239 203.882431,192.921692 203.900192,195.417831 
	C202.595551,193.798370 202.899338,191.619873 203.537842,189.112030 
z"/>
<path fill="#AC7C73" opacity="1.000000" stroke="none" 
	d="
M355.306641,47.661964 
	C353.539673,47.782230 351.443756,47.768227 349.154663,47.406189 
	C350.996155,46.839725 353.008087,46.912495 355.306641,47.661964 
z"/>
<path fill="#AC7C73" opacity="1.000000" stroke="none" 
	d="
M322.722382,323.336670 
	C324.165222,323.213898 325.922485,323.227142 327.860840,323.579224 
	C326.373566,323.769623 324.705170,323.621155 322.722382,323.336670 
z"/>
<path fill="#AB766A" opacity="1.000000" stroke="none" 
	d="
M475.346924,203.304688 
	C475.240784,201.877426 475.259979,200.131500 475.609619,198.196228 
	C475.784119,199.666611 475.628204,201.326324 475.346924,203.304688 
z"/>
<path fill="#9B766E" opacity="1.000000" stroke="none" 
	d="
M204.013016,201.435287 
	C205.797668,202.411087 204.810577,204.286545 204.900330,206.315277 
	C203.821991,205.188049 203.924057,203.497223 204.013016,201.435287 
z"/>
<path fill="#AC7C73" opacity="1.000000" stroke="none" 
	d="
M204.654358,164.661285 
	C204.938217,166.115768 205.302567,167.889465 204.327972,169.825958 
	C204.161819,168.334961 204.332825,166.654678 204.654358,164.661285 
z"/>
<path fill="#AB766A" opacity="1.000000" stroke="none" 
	d="
M476.000763,172.691116 
	C473.986420,171.703766 475.402924,169.760727 475.166626,167.732758 
	C475.488739,169.009949 475.762634,170.662476 476.000763,172.691116 
z"/>
<path fill="#913323" opacity="1.000000" stroke="none" 
	d="
M330.153717,188.350433 
	C326.984253,185.218613 324.097870,182.425049 321.051636,179.336517 
	C320.544220,178.511810 319.940613,178.517914 319.201843,178.168945 
	C318.979065,177.997299 319.012299,177.984085 319.010925,178.001923 
	C318.782501,177.782013 318.551208,177.548431 318.130371,177.156403 
	C317.945038,176.993820 318.010010,176.986984 318.008514,177.019623 
	C317.788269,176.799866 317.559570,176.556854 317.123627,176.168518 
	C316.927979,176.012253 316.993774,176.008560 316.990234,176.041321 
	C316.755554,175.765686 316.488861,175.492584 315.929749,175.119690 
	C315.160889,174.524841 314.643036,174.070770 314.034729,173.371674 
	C313.580048,172.446915 313.228943,171.756012 312.230560,171.256622 
	C308.099182,167.381149 304.216675,163.652863 300.179749,159.649460 
	C299.395081,158.426865 298.376129,157.976562 297.204224,157.190155 
	C296.935730,157.001831 297.008606,156.996414 297.011353,157.032852 
	C296.797119,156.811478 296.568207,156.564789 296.128418,156.172974 
	C295.931335,156.015030 295.994476,156.007355 295.989960,156.038849 
	C295.754486,155.761826 295.485413,155.491226 294.927582,155.117310 
	C293.831024,154.185989 292.985107,153.395859 292.029755,152.334869 
	C291.596893,151.475159 291.237610,150.914597 290.383453,150.367859 
	C283.492706,144.469894 277.789642,137.758484 270.836395,132.388657 
	C268.430634,130.530731 268.602386,128.648621 270.817047,126.625534 
	C273.147919,124.496323 275.426270,122.283760 277.508667,119.915199 
	C279.992462,117.090111 282.247437,115.818886 285.101746,119.497299 
	C285.960052,120.603455 287.451477,121.218353 288.822052,122.337059 
	C289.299347,123.262550 289.885040,123.484131 290.787903,123.807587 
	C291.048340,123.996231 290.991730,124.009758 290.995972,123.980957 
	C291.209869,124.207207 291.435333,124.447365 291.865479,124.832199 
	C292.054291,124.991783 291.996307,125.005104 292.000793,124.975693 
	C292.242065,125.211250 292.468658,125.484764 292.785645,126.012878 
	C299.428467,132.842972 305.987122,139.410965 312.503723,146.020386 
	C313.897400,147.433929 315.320404,148.761765 317.376831,149.814758 
	C318.014832,150.197693 318.395599,150.405396 318.997559,150.882202 
	C319.466125,151.163177 319.637970,151.293182 319.851440,151.615265 
	C320.152679,152.059647 320.386658,152.351822 320.849182,152.813690 
	C321.064514,152.994019 321.001038,152.997849 321.006958,152.966614 
	C321.210022,153.204346 321.431946,153.451019 321.866699,153.838867 
	C322.054749,154.002319 321.988647,154.011810 321.987488,153.978439 
	C322.208466,154.198624 322.440765,154.442490 322.874878,154.841187 
	C323.067749,155.004456 323.001251,154.998779 323.008301,154.966156 
	C323.252289,155.215927 323.484283,155.502319 323.823029,156.045868 
	C325.204712,157.608719 326.473907,158.919067 327.868042,160.507629 
	C330.674500,162.128571 330.494904,160.204529 330.492401,158.565079 
	C330.482727,152.277695 330.556610,145.990112 330.282806,139.313995 
	C330.110321,138.925034 330.004547,138.624954 330.020386,138.466675 
	C329.847961,137.973419 329.625732,137.662476 329.160889,137.179626 
	C328.947510,136.987091 329.015900,136.985657 329.014618,137.019836 
	C328.791534,136.801865 328.560608,136.558319 328.133331,136.155075 
	C327.945953,135.986862 328.013977,135.984711 328.012726,136.018738 
	C327.766998,135.765137 327.496460,135.504578 326.959961,135.121933 
	C318.916931,127.283607 311.113708,119.594620 303.149292,111.631821 
	C302.687042,110.714790 302.098145,110.516502 301.221375,110.182373 
	C300.971405,109.987831 301.022980,109.974342 301.020508,110.000885 
	C300.790131,109.790771 300.559326,109.557014 300.149536,109.153809 
	C299.973419,108.981483 300.027313,108.972214 300.023346,108.999268 
	C299.785431,108.786667 299.549255,108.549225 299.119659,108.151001 
	C298.928833,107.987663 299.006317,107.990944 299.004761,108.029694 
	C298.608978,107.611000 298.512207,107.031654 298.115967,106.309395 
	C290.617004,101.660370 285.725922,94.653336 279.621918,88.938133 
	C278.424011,87.816521 279.668304,86.830734 280.460754,86.036880 
	C283.032898,83.460152 285.642700,80.921005 288.547241,78.281479 
	C289.184448,78.266716 289.460236,78.427422 289.860779,78.843552 
	C290.037750,79.009415 289.981354,79.020981 289.984833,78.992401 
	C290.210052,79.209717 290.440674,79.447006 290.870422,79.835037 
	C291.060699,79.994385 290.997162,80.005112 290.998047,79.972900 
	C291.212677,80.197563 291.439331,80.442444 291.869019,80.838417 
	C292.059052,81.001518 291.995422,81.002548 292.002075,80.971436 
	C292.243469,81.210907 292.471039,81.487427 292.797119,82.016785 
	C304.875519,93.811241 315.737091,106.501129 328.841675,117.333527 
	C329.125061,117.943657 329.347900,118.173988 329.864136,118.139069 
	C330.050507,117.977364 330.028778,118.059814 329.987488,118.049194 
	C330.999542,116.347130 330.464966,114.473671 330.472687,112.694008 
	C330.544647,96.098610 330.448334,79.502838 330.681000,62.443657 
	C336.588837,60.966587 342.396393,61.694798 348.612610,61.790947 
	C349.041840,62.016743 349.007233,61.960373 349.037506,61.947063 
	C350.063171,67.663574 349.199402,73.443260 349.626160,79.637115 
	C349.721680,92.030434 349.721680,103.977531 349.721680,116.040222 
	C352.468323,116.004166 353.301025,114.122864 354.502594,112.929657 
	C365.016571,102.488625 375.551880,92.065689 385.867126,81.430161 
	C388.669373,78.540901 390.420563,78.685226 393.142181,81.482910 
	C399.649841,88.172493 399.718689,87.997581 393.061890,95.103020 
	C391.900848,96.342323 390.689484,97.383018 389.081482,98.545822 
	C388.739746,99.121040 388.567566,99.414696 388.158600,99.861740 
	C387.982910,100.050972 387.969574,99.983833 388.003418,99.978889 
	C387.797119,100.205437 387.559845,100.439857 387.157898,100.862938 
	C386.990356,101.048714 387.001465,100.985435 387.031464,100.996948 
	C386.795837,101.208611 386.551056,101.431618 386.168579,101.869064 
	C386.010132,102.060654 385.986572,102.001724 386.017883,101.996658 
	C385.795441,102.207970 385.553345,102.436745 385.149780,102.858109 
	C384.976624,103.038307 384.983490,102.970673 385.017029,102.976257 
	C384.803772,103.198883 384.566376,103.425720 384.166992,103.839317 
	C383.995636,104.016281 383.992462,103.991852 384.004028,103.995926 
	C383.555481,104.475365 382.860413,104.481293 382.171814,105.105942 
	C371.406464,116.049011 360.810181,126.724197 350.036835,137.686752 
	C349.072388,142.058304 349.680450,146.179718 349.626526,150.682190 
	C349.721527,151.083466 349.733246,151.501373 349.727600,151.710327 
	C349.273071,153.900375 349.600525,155.910248 349.500031,158.201614 
	C349.500519,158.687820 349.501007,158.876663 349.512085,159.335510 
	C349.584930,159.767044 349.647156,159.928574 349.916687,160.234634 
	C350.286072,160.338791 350.448059,160.298431 350.794128,160.088257 
	C350.978180,159.918427 350.986694,159.985031 350.953125,159.985138 
	C351.200226,159.744934 351.489746,159.515839 352.049347,159.203766 
	C359.918945,151.503326 367.534149,143.904327 375.135620,136.291626 
	C378.042999,133.379929 380.820343,130.324661 384.676270,127.978577 
	C385.807587,126.817650 386.617584,125.811333 387.856995,124.798599 
	C390.914825,121.855362 393.413513,116.710785 396.585022,116.977135 
	C399.667297,117.236000 402.438568,121.851616 405.240051,124.660233 
	C410.609558,130.043442 410.661896,130.162491 405.138123,135.422226 
	C392.700897,147.264938 380.172455,159.011780 367.379028,170.940430 
	C366.782288,171.245636 366.531494,171.459503 366.188965,171.933090 
	C365.318817,172.995331 364.584198,173.849289 363.599854,174.838501 
	C362.956177,175.164703 362.609375,175.419647 362.128632,176.009399 
	C361.902710,176.518417 361.777649,176.702118 361.409668,176.882111 
	C360.699188,177.389984 359.983582,177.477829 359.173340,178.073486 
	C350.612823,184.142670 348.313293,192.266022 349.847351,202.339783 
	C349.655609,204.641922 348.683044,206.594299 350.703369,207.998398 
	C351.372681,207.266663 351.793732,206.749130 352.441772,206.118530 
	C353.018005,205.839081 353.337769,205.628021 353.812012,205.149597 
	C353.995941,204.926926 354.028534,205.008133 353.987976,205.024521 
	C354.194672,204.802414 354.439362,204.561295 354.862732,204.134476 
	C355.043671,203.951035 355.007355,204.036377 354.964600,204.018356 
	C355.187866,203.792358 355.437592,203.566406 355.825012,203.121841 
	C355.978943,202.921158 355.985809,202.985947 355.953430,202.982468 
	C356.200378,202.793350 356.450531,202.574387 356.822845,202.123260 
	C356.974213,201.924423 356.983826,201.985855 356.954132,201.976624 
	C357.204559,201.788345 357.453491,201.573227 357.820068,201.124451 
	C357.968933,200.926865 357.987762,200.985641 357.957397,200.980072 
	C358.204285,200.787994 358.454071,200.570038 358.840698,200.133331 
	C359.004974,199.946030 359.004395,200.009201 358.973694,200.001709 
	C359.770691,199.457275 360.605713,198.931686 361.629883,198.171524 
	C367.714874,191.993347 373.601044,186.034729 379.797424,179.914612 
	C380.730896,179.536926 381.192261,179.119873 381.694427,178.297577 
	C383.593323,176.118896 385.355530,174.226608 387.389130,172.176376 
	C388.009369,171.847153 388.329987,171.633484 388.805054,171.151794 
	C388.987671,170.926117 388.989777,170.990845 388.957947,170.984802 
	C389.195648,170.780731 389.444824,170.559616 389.835266,170.125061 
	C389.993896,169.931381 390.001068,169.999252 389.966980,170.000519 
	C390.193085,169.789093 390.441315,169.563354 390.846344,169.137238 
	C391.016968,168.951981 391.010315,169.017715 390.978119,169.010284 
	C392.211700,168.297195 393.200989,167.226883 394.600769,166.190735 
	C398.177277,162.519501 401.576935,159.103836 404.862518,155.581741 
	C406.691376,153.621231 407.892273,153.852844 409.607788,155.909943 
	C412.049103,158.837433 414.776978,161.578903 417.675232,164.057419 
	C420.532990,166.501266 420.792297,168.153915 417.823029,170.961517 
	C405.038147,183.050446 392.501801,195.402237 379.597137,207.811630 
	C378.981171,208.151321 378.665100,208.369354 378.186829,208.843567 
	C377.998840,209.062881 377.996735,208.997681 378.029053,209.002167 
	C377.799866,209.230194 377.535767,209.450607 377.039612,209.785919 
	C369.494232,217.159439 362.178284,224.414978 354.583405,231.824341 
	C353.969940,232.159805 353.659241,232.375687 353.182861,232.838226 
	C352.993378,233.050674 352.994751,232.991364 353.022247,233.002502 
	C352.573212,233.446152 351.918365,233.483383 351.182770,234.011139 
	C350.655212,234.986130 350.320404,235.718872 349.880493,236.739410 
	C349.180542,244.444855 349.610107,251.873016 349.736694,259.699768 
	C349.926514,260.103424 349.954407,260.420227 349.942017,260.578766 
	C350.839996,262.208893 352.253387,261.203522 353.706360,261.292511 
	C353.999084,261.140228 354.403534,261.009094 354.615967,261.017151 
	C356.131897,260.064056 357.650940,260.704254 359.384094,260.313477 
	C365.907745,258.204346 372.097717,256.238556 378.640442,254.119614 
	C380.595795,253.009506 382.368073,253.747467 384.383423,253.331055 
	C384.941040,253.134384 385.153076,253.068222 385.694153,252.949371 
	C387.891144,252.106659 389.852570,252.671783 392.178711,252.503876 
	C392.870605,252.524017 393.147034,252.541107 393.783813,252.764984 
	C394.331970,252.978943 394.519775,252.986084 394.980072,253.065735 
	C396.893951,253.883942 398.650757,253.277100 400.552094,253.865402 
	C407.427521,255.910339 413.533142,259.515198 420.988037,260.091003 
	C426.939789,260.885468 432.483124,260.352844 438.399841,260.294617 
	C438.784149,260.134613 439.248627,259.996613 439.490784,260.004333 
	C440.867767,259.309448 441.977966,259.248169 443.087219,260.589996 
	C440.403748,264.446838 438.439178,268.494537 434.304230,271.059052 
	C432.206268,271.895996 430.350555,271.285492 428.206757,271.706482 
	C424.453003,270.046051 420.671356,271.686768 417.159515,270.617889 
	C409.681641,268.341888 402.159637,266.210938 394.261292,263.925842 
	C390.917847,263.125702 387.928406,263.643494 384.608063,263.663757 
	C375.781158,266.152435 367.901062,270.604187 358.447510,271.040955 
	C356.387360,271.962494 354.600555,271.263153 352.557037,271.674805 
	C341.942078,272.536469 332.014923,271.167297 322.404846,267.345306 
	C318.931793,265.964081 315.248688,265.111145 311.274902,263.925171 
	C307.887573,263.127808 304.848175,263.635315 301.474915,263.685974 
	C292.961609,266.011322 285.170990,269.468475 276.394470,270.886780 
	C271.617126,270.091492 267.202728,270.646759 262.420654,270.703918 
	C254.872910,269.981873 247.872314,268.374115 241.034058,266.078827 
	C238.603027,265.262848 234.572662,257.312775 235.345261,255.036636 
	C235.785324,253.740143 236.927460,254.106842 237.828842,254.033264 
	C241.071259,253.768631 243.874222,255.404114 246.768417,256.406158 
	C251.578613,258.071594 256.434784,259.384674 261.902557,260.131470 
	C266.191162,260.831665 270.073608,260.377289 274.311279,260.337250 
	C281.474731,258.127289 288.271240,256.044891 295.447449,253.989014 
	C297.430054,253.001160 299.224915,253.744125 301.251770,253.318466 
	C301.797699,253.004898 301.999542,252.833359 302.556000,252.482666 
	C303.144470,252.361176 303.378296,252.418823 303.973328,252.486862 
	C306.022095,252.525742 307.710876,252.445541 309.710663,252.736511 
	C310.244720,252.942596 310.465607,252.967255 311.006958,253.083969 
	C312.964813,253.854630 314.703705,253.279465 316.580383,253.883118 
	C320.978058,253.563980 323.933136,257.913574 328.597656,257.084778 
	C331.281311,257.129547 330.446350,255.352234 330.458466,254.289749 
	C330.521759,248.748062 330.552521,243.204590 330.295532,237.318542 
	C327.643066,234.402664 325.154083,231.830292 322.400696,229.058289 
	C321.819305,228.744553 321.544952,228.565140 321.127747,228.156509 
	C320.942200,227.992599 321.010223,227.990494 321.008820,228.024506 
	C320.765564,227.765884 320.494995,227.502747 319.952698,227.122284 
	C312.900299,220.260880 306.090881,213.546432 299.128326,206.547897 
	C298.650360,205.657272 298.051788,205.514832 297.209290,205.184479 
	C296.962585,205.001236 297.010345,204.983200 297.007446,205.008545 
	C296.758850,204.780624 296.527771,204.514603 296.191132,204.001007 
	C295.135559,203.114090 294.088440,202.577682 293.277008,201.796432 
	C282.186707,191.118912 271.157074,180.378204 260.036957,169.731964 
	C258.072968,167.851715 257.739197,166.441528 259.936707,164.492325 
	C262.538300,162.184647 265.101105,159.768494 267.297485,157.085617 
	C269.876465,153.935394 272.000397,153.467972 274.574463,156.996033 
	C275.633911,158.448120 277.152802,159.565002 278.779877,160.966080 
	C279.917664,161.619858 280.716431,162.176392 281.792023,162.838593 
	C282.021240,163.019440 281.971375,163.030609 281.973969,163.005188 
	C282.211243,163.212570 282.445923,163.445389 282.863953,163.845108 
	C283.047272,164.012009 282.985260,164.013290 282.992126,163.983032 
	C283.209015,164.207489 283.435211,164.446945 283.872925,164.822556 
	C284.068359,164.973923 284.010468,164.991577 284.018921,164.962524 
	C284.254456,165.215286 284.480072,165.498230 284.819672,166.028076 
	C292.147766,173.471680 299.360107,180.669769 306.898071,187.998367 
	C307.620239,188.365433 308.044647,188.526306 308.780212,188.800171 
	C309.058960,189.001236 308.991638,189.011841 308.988647,188.977890 
	C309.207672,189.197571 309.439667,189.441727 309.878174,189.835220 
	C310.074738,189.994049 310.006165,189.994720 310.008118,189.960480 
	C310.213959,190.192596 310.437286,190.441467 310.881775,190.822632 
	C311.083466,190.972382 311.020477,190.981949 311.026245,190.950623 
	C311.259979,191.214355 311.487854,191.509521 311.819763,192.064331 
	C317.388519,197.796875 322.853149,203.269852 328.597046,208.921082 
	C329.155487,209.345001 329.439301,209.350525 329.863892,208.906052 
	C330.000000,208.696274 330.004333,208.352768 330.064636,208.191940 
	C330.916290,201.594727 330.360413,195.136612 330.153717,188.350433 
z"/>
<path fill="#913121" opacity="1.000000" stroke="none" 
	d="
M254.775757,279.764771 
	C257.125244,281.484283 259.407043,280.845184 261.966248,281.125061 
	C266.523621,281.825745 270.686951,281.377441 275.207214,281.332794 
	C283.823212,279.639038 291.326080,275.529633 299.630615,274.166840 
	C300.443909,274.033356 301.278778,274.031464 302.457458,273.971619 
	C305.576416,273.027527 308.419708,273.661163 311.647583,273.775513 
	C321.355560,276.616058 330.519012,279.904633 339.967255,281.661560 
	C348.069397,283.168121 356.385529,281.970978 364.352509,279.322937 
	C371.358490,276.994293 378.323914,274.495239 386.070862,273.286926 
	C388.408875,273.794403 390.390228,273.328552 392.644745,273.747925 
	C402.706573,274.928589 411.384216,279.631531 420.743713,281.938385 
	C423.708160,282.668976 423.078094,283.657867 421.525787,285.063599 
	C416.129456,289.950439 415.775513,293.150909 406.128418,288.702423 
	C402.734589,287.137390 398.886871,286.556702 395.016602,285.206818 
	C391.508972,284.054901 388.181274,284.670746 384.523621,284.691589 
	C375.789642,287.348083 367.851898,291.407959 358.513367,292.018463 
	C356.785156,292.900391 355.309448,292.337372 353.488647,292.499969 
	C349.634674,292.525909 346.209076,292.445282 342.384521,292.698944 
	C331.927216,292.341278 322.747345,288.373291 313.048950,285.248230 
	C309.213348,284.022797 305.546265,284.687683 301.541809,284.687988 
	C294.425903,286.797729 288.215790,290.527374 280.607300,290.973755 
	C275.086792,292.150482 269.900360,291.240692 264.311707,291.231445 
	C259.757812,288.665100 256.611328,285.188538 253.151764,281.619324 
	C252.471725,280.000427 253.281143,279.668243 254.775757,279.764771 
z"/>
<path fill="#923222" opacity="1.000000" stroke="none" 
	d="
M395.695496,294.761993 
	C396.583405,295.046509 397.176178,294.966919 397.548615,295.216400 
	C399.441803,296.484375 403.386719,295.539581 403.407959,297.767914 
	C403.431152,300.203522 399.808960,300.914886 397.601837,302.188843 
	C394.238586,304.130096 390.800598,305.521667 386.399628,305.092773 
	C384.357391,305.900330 382.627197,305.287048 380.645203,305.706055 
	C374.399994,308.514374 368.446686,311.060852 361.559204,311.984863 
	C359.849304,312.953064 358.312500,312.285309 356.564636,312.689880 
	C356.031342,312.892670 355.835144,312.950958 355.333649,313.041748 
	C351.392059,313.968353 347.703583,313.323120 343.622803,313.252380 
	C342.978302,313.043976 342.752075,313.029694 342.194031,312.940918 
	C340.485718,312.154083 338.982117,312.693237 337.272278,312.205322 
	C331.962280,311.885895 327.385834,309.988861 322.756866,308.373169 
	C316.652130,306.242371 310.387146,305.152252 303.499451,305.017700 
	C301.779846,305.968384 300.275696,305.269379 298.576385,305.700226 
	C291.184875,309.886230 286.735291,303.878906 281.362762,301.692596 
	C281.123077,299.774353 282.676392,299.676239 283.546478,299.282471 
	C297.399933,293.012543 311.396393,292.356567 325.783142,297.738098 
	C331.117188,299.733368 336.526489,301.982025 342.854797,302.127258 
	C346.879120,302.807007 350.495178,302.394836 354.461914,302.316742 
	C363.656708,301.157990 371.417969,296.352386 380.555542,295.001770 
	C384.492218,293.946472 388.118256,294.763916 392.145447,294.500061 
	C393.497559,294.503571 394.398895,294.486328 395.695496,294.761993 
z"/>
<path fill="#9C5142" opacity="1.000000" stroke="none" 
	d="
M330.891663,61.833534 
	C331.069061,78.397011 331.045685,94.664093 330.986969,110.931061 
	C330.979248,113.070404 331.295166,115.259804 330.152374,117.676880 
	C329.975647,99.677719 330.005127,81.316864 330.087891,62.491749 
	C330.320709,61.864037 330.500336,61.700573 330.891663,61.833534 
z"/>
<path fill="#9C5142" opacity="1.000000" stroke="none" 
	d="
M330.068573,139.401367 
	C331.949066,145.732208 330.728119,152.656418 330.850403,159.526962 
	C330.872986,160.796921 330.137482,161.758301 328.277191,160.947357 
	C331.009247,160.966415 329.895874,158.622971 329.927582,157.299179 
	C330.066650,151.494568 330.011536,145.685287 330.068573,139.401367 
z"/>
<path fill="#545454" opacity="1.000000" stroke="none" 
	d="
M349.949158,259.624847 
	C348.130859,252.690277 348.978699,245.211456 349.573181,237.385590 
	C349.840851,244.400223 349.906342,251.773254 349.949158,259.624847 
z"/>
<path fill="#9A4D3E" opacity="1.000000" stroke="none" 
	d="
M330.085876,237.445923 
	C331.821320,243.542511 330.887482,250.188339 330.681671,256.808167 
	C330.661041,257.471344 330.161316,258.084412 329.142456,257.348877 
	C331.229919,250.844162 329.374542,244.312622 330.085876,237.445923 
z"/>
<path fill="#9C5142" opacity="1.000000" stroke="none" 
	d="
M329.922241,188.477371 
	C331.941162,194.374924 331.004425,200.833084 330.303406,207.654602 
	C330.074585,201.668274 330.024200,195.305420 329.922241,188.477371 
z"/>
<path fill="#A86B5F" opacity="1.000000" stroke="none" 
	d="
M331.561462,62.086296 
	C331.103424,62.129963 330.622620,62.074062 330.381866,62.050781 
	C336.214233,59.865929 342.437012,61.322212 348.819489,61.640419 
	C343.367737,62.025372 337.693604,62.034000 331.561462,62.086296 
z"/>
<path fill="#545454" opacity="1.000000" stroke="none" 
	d="
M349.816589,79.616364 
	C348.135437,74.402328 349.310181,68.608124 349.041962,62.403946 
	C350.978455,67.592445 349.621002,73.411301 349.816589,79.616364 
z"/>
<path fill="#A78A85" opacity="1.000000" stroke="none" 
	d="
M438.335358,260.088623 
	C433.254242,261.903809 427.665222,261.114807 421.749298,260.345337 
	C426.907440,260.127533 432.397003,260.085052 438.335358,260.088623 
z"/>
<path fill="#A56557" opacity="1.000000" stroke="none" 
	d="
M264.110992,291.388489 
	C268.993408,290.991272 274.113342,290.964508 279.719086,290.941650 
	C275.021820,293.212250 269.639374,291.593170 264.110992,291.388489 
z"/>
<path fill="#9A4D3E" opacity="1.000000" stroke="none" 
	d="
M262.495728,270.922913 
	C266.413849,269.405426 270.847778,269.943268 275.639954,270.679749 
	C271.650330,270.913147 267.302521,270.949493 262.495728,270.922913 
z"/>
<path fill="#AB766A" opacity="1.000000" stroke="none" 
	d="
M275.151611,281.151123 
	C271.435486,282.564819 267.255920,282.200195 262.725464,281.347168 
	C266.497681,281.169891 270.612823,281.135193 275.151611,281.151123 
z"/>
<path fill="#A86B5F" opacity="1.000000" stroke="none" 
	d="
M274.247253,260.155579 
	C270.822754,261.507782 266.929382,261.244080 262.678101,260.352356 
	C266.160126,260.175293 269.988220,260.138367 274.247253,260.155579 
z"/>
<path fill="#545454" opacity="1.000000" stroke="none" 
	d="
M349.816376,150.621033 
	C348.454407,146.972275 348.810577,142.820404 349.634949,138.318268 
	C349.876923,142.035614 349.894073,146.097122 349.816376,150.621033 
z"/>
<path fill="#A86B5F" opacity="1.000000" stroke="none" 
	d="
M301.618744,284.888489 
	C304.800751,283.409882 308.462402,283.722534 312.480164,284.766937 
	C309.236847,284.937164 305.649353,284.941223 301.618744,284.888489 
z"/>
<path fill="#9C584B" opacity="1.000000" stroke="none" 
	d="
M392.584595,294.455627 
	C389.328644,294.905914 385.605347,294.969391 381.417297,295.014954 
	C384.519958,292.833099 388.415283,294.614044 392.584595,294.455627 
z"/>
<path fill="#A86B5F" opacity="1.000000" stroke="none" 
	d="
M354.382050,302.123322 
	C351.247040,303.589264 347.617096,303.225433 343.631592,302.352997 
	C346.838013,302.158966 350.389221,302.114319 354.382050,302.123322 
z"/>
<path fill="#99908E" opacity="1.000000" stroke="none" 
	d="
M343.479858,313.350952 
	C346.840576,313.036285 350.476624,313.014313 354.570557,313.033264 
	C351.353851,314.910614 347.534576,313.881927 343.479858,313.350952 
z"/>
<path fill="#A86B5F" opacity="1.000000" stroke="none" 
	d="
M384.609100,284.889404 
	C387.446869,283.394867 390.764252,283.737152 394.440125,284.754517 
	C391.541229,284.905243 388.295593,284.923370 384.609100,284.889404 
z"/>
<path fill="#A35B4E" opacity="1.000000" stroke="none" 
	d="
M342.444397,292.921265 
	C345.301697,291.211761 348.820099,292.360352 352.672119,292.466736 
	C349.705780,292.878143 346.304932,292.934357 342.444397,292.921265 
z"/>
<path fill="#A35B4E" opacity="1.000000" stroke="none" 
	d="
M301.561279,263.885742 
	C304.104218,262.514648 307.141968,262.706360 310.545013,263.662323 
	C307.925781,263.870331 304.963165,263.907440 301.561279,263.885742 
z"/>
<path fill="#A56557" opacity="1.000000" stroke="none" 
	d="
M384.683167,263.846039 
	C387.198792,262.651550 390.181610,262.718689 393.527527,263.660278 
	C390.947876,263.854736 388.028839,263.878296 384.683167,263.846039 
z"/>
<path fill="#545454" opacity="1.000000" stroke="none" 
	d="
M349.264496,161.089630 
	C349.161072,158.095535 349.253052,155.359940 349.533508,152.271805 
	C349.820404,154.274887 349.918823,156.630478 350.027832,159.424316 
	C350.177673,160.058899 350.316895,160.255249 350.240784,160.741425 
	C350.025452,161.031250 350.000000,161.000000 350.012390,161.015213 
	C349.836517,161.136307 349.648224,161.242203 349.264496,161.089630 
z"/>
<path fill="#805A52" opacity="1.000000" stroke="none" 
	d="
M311.793091,273.689880 
	C309.292603,274.006836 306.516693,274.021545 303.276001,274.005493 
	C305.602234,272.130615 308.582184,273.089050 311.793091,273.689880 
z"/>
<path fill="#7F6F62" opacity="1.000000" stroke="none" 
	d="
M350.610901,207.614975 
	C350.504944,208.749741 349.671967,209.702332 349.214569,208.121185 
	C348.801849,206.694550 349.300842,205.004166 349.596497,203.110504 
	C349.953522,204.342545 350.111877,205.894165 350.610901,207.614975 
z"/>
<path fill="#99908E" opacity="1.000000" stroke="none" 
	d="
M309.795227,252.593872 
	C307.994507,252.886353 305.965179,252.854767 303.570435,252.562454 
	C305.322968,251.770233 307.443665,251.798065 309.795227,252.593872 
z"/>
<path fill="#A78A85" opacity="1.000000" stroke="none" 
	d="
M393.213226,252.757050 
	C390.952271,252.962418 388.920654,252.967499 386.456116,252.934647 
	C387.869354,251.216461 390.117645,252.274933 392.576172,252.075745 
	C393.136169,252.290390 393.289368,252.423569 393.213226,252.757050 
z"/>
<path fill="#7F6F62" opacity="1.000000" stroke="none" 
	d="
M392.712463,273.655823 
	C390.993347,273.834045 389.032867,273.719879 386.776672,273.423248 
	C388.484344,272.955170 390.486664,272.722900 392.712463,273.655823 
z"/>
<path fill="#AC7C73" opacity="1.000000" stroke="none" 
	d="
M316.716431,253.793365 
	C315.169525,253.946259 313.549683,253.710403 311.628601,253.325287 
	C313.103790,253.150925 314.904114,252.569595 316.716431,253.793365 
z"/>
<path fill="#AB766A" opacity="1.000000" stroke="none" 
	d="
M428.261108,271.920959 
	C429.471130,270.600067 431.356079,271.093109 433.556885,271.092926 
	C432.421875,272.816406 430.430328,271.678741 428.261108,271.920959 
z"/>
<path fill="#A56557" opacity="1.000000" stroke="none" 
	d="
M352.594177,271.850769 
	C353.820038,271.077484 355.528290,270.960052 357.643280,271.036377 
	C356.599792,272.894897 354.663330,271.628387 352.594177,271.850769 
z"/>
<path fill="#A9827A" opacity="1.000000" stroke="none" 
	d="
M380.687805,305.897278 
	C381.816437,304.796295 383.510162,304.874329 385.592804,305.074097 
	C384.563751,306.802002 382.712524,305.772217 380.687805,305.897278 
z"/>
<path fill="#91685F" opacity="1.000000" stroke="none" 
	d="
M443.386414,260.901306 
	C442.232269,260.734680 441.341766,260.428802 440.092102,260.067505 
	C441.362854,258.568604 442.868286,257.775360 443.386414,260.901306 
z"/>
<path fill="#9B766E" opacity="1.000000" stroke="none" 
	d="
M400.609253,253.808807 
	C399.127350,253.940048 397.481201,253.720673 395.543793,253.319778 
	C396.991638,253.110565 398.768188,252.474991 400.609253,253.808807 
z"/>
<path fill="#AB766A" opacity="1.000000" stroke="none" 
	d="
M384.348083,253.159378 
	C383.141083,253.918030 381.469666,254.136444 379.368896,254.000687 
	C380.372986,252.052490 382.300262,253.348618 384.348083,253.159378 
z"/>
<path fill="#AB766A" opacity="1.000000" stroke="none" 
	d="
M301.224243,253.141602 
	C300.019135,253.969620 298.325745,254.085114 296.215576,254.025681 
	C297.220093,252.151932 299.156769,253.295227 301.224243,253.141602 
z"/>
<path fill="#91685F" opacity="1.000000" stroke="none" 
	d="
M394.516785,166.027679 
	C394.199921,167.455521 393.023468,168.320023 391.267090,168.950180 
	C392.033356,168.027145 393.120819,167.051437 394.516785,166.027679 
z"/>
<path fill="#805A52" opacity="1.000000" stroke="none" 
	d="
M387.714478,124.699280 
	C387.511505,125.785172 386.736237,126.829590 385.254639,127.661926 
	C385.075897,126.226997 386.061859,125.399605 387.714478,124.699280 
z"/>
<path fill="#A9827A" opacity="1.000000" stroke="none" 
	d="
M298.620300,305.905334 
	C299.439667,304.774445 300.899841,304.929108 302.696472,304.973999 
	C302.036469,306.721313 300.397034,305.849945 298.620300,305.905334 
z"/>
<path fill="#A9827A" opacity="1.000000" stroke="none" 
	d="
M353.489441,292.885742 
	C353.106628,292.821930 353.128113,292.513275 353.139587,292.359589 
	C354.522766,292.127350 355.894501,292.048798 357.680115,291.994141 
	C357.007141,293.780426 355.303040,292.745605 353.489441,292.885742 
z"/>
<path fill="#975D56" opacity="1.000000" stroke="none" 
	d="
M255.056396,279.699768 
	C254.607849,280.275116 254.019974,280.556030 253.216537,281.087708 
	C252.371460,280.874420 251.493561,280.208618 252.031906,279.521606 
	C252.744553,278.612183 253.918655,278.734131 255.056396,279.699768 
z"/>
<path fill="#9B766E" opacity="1.000000" stroke="none" 
	d="
M337.224518,312.271484 
	C338.413483,312.142456 339.842377,312.304047 341.566772,312.666077 
	C340.384460,312.936462 338.875702,313.453217 337.224518,312.271484 
z"/>
<path fill="#AC7C73" opacity="1.000000" stroke="none" 
	d="
M356.607239,312.877258 
	C357.509064,312.000671 358.953156,311.912689 360.789764,311.943817 
	C360.114410,313.792847 358.419434,312.781921 356.607239,312.877258 
z"/>
<path fill="#A9827A" opacity="1.000000" stroke="none" 
	d="
M359.343567,260.117371 
	C358.481537,261.143341 357.011963,261.053894 355.198242,261.053253 
	C355.868652,259.238953 357.542847,260.185577 359.343567,260.117371 
z"/>
<path fill="#A86B5F" opacity="1.000000" stroke="none" 
	d="
M353.592590,261.094543 
	C352.663239,261.820435 351.334808,262.752319 349.932251,260.998718 
	C351.015106,260.841187 352.100586,260.945038 353.592590,261.094543 
z"/>
<path fill="#8A5F58" opacity="1.000000" stroke="none" 
	d="
M281.870483,162.744324 
	C280.924500,162.976837 280.085663,162.451843 279.253113,161.360428 
	C280.328888,160.871017 281.000214,161.716202 281.870483,162.744324 
z"/>
<path fill="#91685F" opacity="1.000000" stroke="none" 
	d="
M361.528870,197.997986 
	C361.455414,199.042053 360.641174,199.627609 359.258209,199.958649 
	C359.704987,199.344131 360.466980,198.694061 361.528870,197.997986 
z"/>
<path fill="#975D56" opacity="1.000000" stroke="none" 
	d="
M297.106110,157.284485 
	C298.087708,157.225220 299.068604,157.710022 299.843933,159.080261 
	C299.109039,158.771927 298.192780,158.169525 297.106110,157.284485 
z"/>
<path fill="#975D56" opacity="1.000000" stroke="none" 
	d="
M290.204468,150.457428 
	C290.616150,150.676437 291.154816,151.120178 291.806885,151.813965 
	C291.390656,151.603409 290.861053,151.142792 290.204468,150.457428 
z"/>
<path fill="#975D56" opacity="1.000000" stroke="none" 
	d="
M312.114502,171.360657 
	C312.560516,171.600464 313.139404,172.091492 313.831268,172.854584 
	C313.378632,172.621735 312.812988,172.116806 312.114502,171.360657 
z"/>
<path fill="#A56557" opacity="1.000000" stroke="none" 
	d="
M393.429138,294.897888 
	C393.051971,294.842407 393.036804,294.510834 393.032806,294.344910 
	C393.947968,294.230896 394.867157,294.282806 395.939270,294.654541 
	C395.330261,294.967346 394.568268,294.960358 393.429138,294.897888 
z"/>
<path fill="#91685F" opacity="1.000000" stroke="none" 
	d="
M381.610352,178.129333 
	C381.405792,178.517746 380.980499,179.024323 380.331421,179.642014 
	C380.534973,179.251236 380.962311,178.749359 381.610352,178.129333 
z"/>
<path fill="#86514B" opacity="1.000000" stroke="none" 
	d="
M297.167969,205.221252 
	C297.490234,205.278778 298.017914,205.556320 298.760376,206.048828 
	C298.441254,205.989639 297.907318,205.715469 297.167969,205.221252 
z"/>
<path fill="#9C584B" opacity="1.000000" stroke="none" 
	d="
M351.284637,234.139465 
	C351.477875,233.887604 351.965729,233.521820 352.751678,233.084839 
	C352.559601,233.350967 352.069427,233.688278 351.284637,234.139465 
z"/>
<path fill="#8A5F58" opacity="1.000000" stroke="none" 
	d="
M290.864685,123.739136 
	C290.511078,123.691429 289.973785,123.386627 289.213867,122.848816 
	C289.554504,122.904549 290.117798,123.193291 290.864685,123.739136 
z"/>
<path fill="#805A52" opacity="1.000000" stroke="none" 
	d="
M301.136292,110.254898 
	C301.505310,110.284500 302.039246,110.581161 302.780640,111.117920 
	C302.425812,111.079323 301.863525,110.800644 301.136292,110.254898 
z"/>
<path fill="#805A52" opacity="1.000000" stroke="none" 
	d="
M297.931152,106.436646 
	C298.198059,106.601830 298.515717,107.063362 298.918274,107.796677 
	C298.662750,107.623299 298.322327,107.178146 297.931152,106.436646 
z"/>
<path fill="#86514B" opacity="1.000000" stroke="none" 
	d="
M382.284485,105.231018 
	C382.471100,104.964630 382.939484,104.555420 383.711731,104.073105 
	C383.532501,104.362740 383.049377,104.725471 382.284485,105.231018 
z"/>
<path fill="#975D56" opacity="1.000000" stroke="none" 
	d="
M359.293518,178.212311 
	C359.508148,177.929199 360.038391,177.498795 360.907745,177.000656 
	C360.700958,177.310272 360.155060,177.687622 359.293518,178.212311 
z"/>
<path fill="#975D56" opacity="1.000000" stroke="none" 
	d="
M319.140961,178.235001 
	C319.491333,178.206955 320.003601,178.416626 320.703857,178.833908 
	C320.362152,178.851913 319.832520,178.662308 319.140961,178.235001 
z"/>
<path fill="#9B766E" opacity="1.000000" stroke="none" 
	d="
M308.916382,188.762390 
	C308.559845,188.847595 308.060699,188.693939 307.392639,188.334595 
	C307.740356,188.260437 308.257080,188.391998 308.916382,188.762390 
z"/>
<path fill="#AB766A" opacity="1.000000" stroke="none" 
	d="
M303.167053,252.245667 
	C303.205048,252.301712 303.212311,252.329483 303.209167,252.337555 
	C303.206055,252.345627 303.062958,252.274811 302.986816,252.289169 
	C302.910645,252.303528 303.129028,252.189606 303.167053,252.245667 
z"/>
<path fill="#805A52" opacity="1.000000" stroke="none" 
	d="
M300.083191,109.213074 
	C300.240997,109.181763 300.508606,109.382034 300.897095,109.804871 
	C300.743011,109.833168 300.467957,109.638916 300.083191,109.213074 
z"/>
<path fill="#805A52" opacity="1.000000" stroke="none" 
	d="
M299.052429,108.216103 
	C299.204315,108.186913 299.479797,108.386162 299.887329,108.805862 
	C299.738281,108.832390 299.457153,108.638466 299.052429,108.216103 
z"/>
<path fill="#86514B" opacity="1.000000" stroke="none" 
	d="
M384.226471,103.907120 
	C384.202423,103.756172 384.409210,103.496078 384.833282,103.108910 
	C384.852783,103.253883 384.655060,103.525932 384.226471,103.907120 
z"/>
<path fill="#86514B" opacity="1.000000" stroke="none" 
	d="
M385.220032,102.939392 
	C385.205933,102.796234 385.435272,102.554161 385.856903,102.151840 
	C385.853943,102.274551 385.658691,102.557510 385.220032,102.939392 
z"/>
<path fill="#86514B" opacity="1.000000" stroke="none" 
	d="
M386.278412,101.997864 
	C386.195831,101.771675 386.381531,101.482681 386.814331,101.101082 
	C386.889893,101.317337 386.718292,101.626205 386.278412,101.997864 
z"/>
<path fill="#86514B" opacity="1.000000" stroke="none" 
	d="
M387.231628,100.943779 
	C387.214874,100.801819 387.439362,100.554924 387.850586,100.140984 
	C387.849152,100.262245 387.661011,100.550545 387.231628,100.943779 
z"/>
<path fill="#805A52" opacity="1.000000" stroke="none" 
	d="
M289.911987,78.785599 
	C289.722015,78.918739 289.441925,78.763687 289.026978,78.369919 
	C289.166412,78.317642 289.476318,78.439713 289.911987,78.785599 
z"/>
<path fill="#86514B" opacity="1.000000" stroke="none" 
	d="
M388.214935,99.911804 
	C388.151306,99.754944 388.319702,99.458908 388.669464,98.977234 
	C388.716217,99.118607 388.581604,99.445618 388.214935,99.911804 
z"/>
<path fill="#805A52" opacity="1.000000" stroke="none" 
	d="
M292.877136,81.972427 
	C292.662170,81.994278 292.421570,81.724785 292.094849,81.197807 
	C292.289612,81.187248 292.570557,81.434174 292.877136,81.972427 
z"/>
<path fill="#805A52" opacity="1.000000" stroke="none" 
	d="
M291.993591,80.732574 
	C291.787048,80.798813 291.515015,80.596100 291.120972,80.167038 
	C291.308685,80.115005 291.618408,80.289314 291.993591,80.732574 
z"/>
<path fill="#805A52" opacity="1.000000" stroke="none" 
	d="
M290.965363,79.747421 
	C290.776917,79.807137 290.493134,79.619888 290.098816,79.198227 
	C290.282227,79.142700 290.576111,79.321587 290.965363,79.747421 
z"/>
<path fill="#91685F" opacity="1.000000" stroke="none" 
	d="
M323.957275,155.975281 
	C323.650482,156.038345 323.365387,155.778290 323.047852,155.225891 
	C323.336578,155.173080 323.657806,155.412628 323.957275,155.975281 
z"/>
<path fill="#91685F" opacity="1.000000" stroke="none" 
	d="
M356.707031,201.989655 
	C356.801666,202.232529 356.629120,202.540634 356.188782,202.913879 
	C356.093994,202.670975 356.266907,202.362930 356.707031,201.989655 
z"/>
<path fill="#91685F" opacity="1.000000" stroke="none" 
	d="
M357.700836,200.985474 
	C357.810638,201.251282 357.652313,201.575699 357.209229,201.933746 
	C357.093872,201.659607 357.263306,201.351837 357.700836,200.985474 
z"/>
<path fill="#975D56" opacity="1.000000" stroke="none" 
	d="
M296.013000,156.276428 
	C296.215607,156.209122 296.499878,156.403198 296.899109,156.833282 
	C296.707611,156.892136 296.401154,156.714981 296.013000,156.276428 
z"/>
<path fill="#91685F" opacity="1.000000" stroke="none" 
	d="
M358.736176,200.003891 
	C358.825195,200.249725 358.645416,200.553421 358.196350,200.915817 
	C358.107178,200.670258 358.287262,200.366013 358.736176,200.003891 
z"/>
<path fill="#9B766E" opacity="1.000000" stroke="none" 
	d="
M352.003357,159.114288 
	C352.035736,159.371384 351.762268,159.635010 351.204163,159.941925 
	C351.178894,159.697083 351.438232,159.408936 352.003357,159.114288 
z"/>
<path fill="#9B766E" opacity="1.000000" stroke="none" 
	d="
M350.309204,160.980850 
	C350.011444,160.836349 349.997467,160.641464 350.010925,160.154541 
	C350.038422,159.862534 350.507996,159.894684 350.743103,159.906555 
	C350.849762,160.255768 350.721375,160.593109 350.309204,160.980850 
z"/>
<path fill="#9B766E" opacity="1.000000" stroke="none" 
	d="
M311.948242,192.000000 
	C311.626160,192.059326 311.328461,191.794785 311.031372,191.224762 
	C311.345520,191.171570 311.659058,191.423859 311.948242,192.000000 
z"/>
<path fill="#9B766E" opacity="1.000000" stroke="none" 
	d="
M311.010437,190.707123 
	C310.746918,190.819077 310.410370,190.665771 310.041931,190.219360 
	C310.319183,190.098114 310.628265,190.269989 311.010437,190.707123 
z"/>
<path fill="#9B766E" opacity="1.000000" stroke="none" 
	d="
M309.985321,189.737122 
	C309.753479,189.827744 309.432190,189.661438 309.048279,189.219528 
	C309.289062,189.122681 309.592499,189.301437 309.985321,189.737122 
z"/>
<path fill="#91685F" opacity="1.000000" stroke="none" 
	d="
M355.708374,202.989441 
	C355.804657,203.231613 355.630402,203.542068 355.189026,203.926422 
	C355.093842,203.686127 355.265839,203.371933 355.708374,202.989441 
z"/>
<path fill="#8A5F58" opacity="1.000000" stroke="none" 
	d="
M282.923218,163.788757 
	C282.782104,163.808746 282.516968,163.605484 282.114197,163.190994 
	C282.250763,163.175003 282.524994,163.370255 282.923218,163.788757 
z"/>
<path fill="#8A5F58" opacity="1.000000" stroke="none" 
	d="
M283.994995,164.711777 
	C283.762512,164.806519 283.456665,164.639114 283.074890,164.212250 
	C283.306519,164.118393 283.614075,164.284012 283.994995,164.711777 
z"/>
<path fill="#8A5F58" opacity="1.000000" stroke="none" 
	d="
M284.945557,165.960999 
	C284.670746,166.011169 284.406097,165.748749 284.084412,165.209900 
	C284.336853,165.171768 284.646301,165.410080 284.945557,165.960999 
z"/>
<path fill="#975D56" opacity="1.000000" stroke="none" 
	d="
M318.049988,177.231293 
	C318.221252,177.185242 318.497437,177.376648 318.891602,177.793915 
	C318.724701,177.836090 318.439789,177.652420 318.049988,177.231293 
z"/>
<path fill="#975D56" opacity="1.000000" stroke="none" 
	d="
M317.009949,176.271759 
	C317.207214,176.206619 317.486420,176.400970 317.886353,176.823792 
	C317.701965,176.878601 317.396942,176.704926 317.009949,176.271759 
z"/>
<path fill="#975D56" opacity="1.000000" stroke="none" 
	d="
M362.248291,176.143906 
	C362.211060,175.933197 362.474426,175.586197 363.043915,175.106476 
	C363.083008,175.318375 362.815979,175.662994 362.248291,176.143906 
z"/>
<path fill="#975D56" opacity="1.000000" stroke="none" 
	d="
M315.817688,175.250122 
	C316.037842,175.157043 316.396973,175.335190 316.871399,175.793701 
	C316.643341,175.889832 316.299988,175.705597 315.817688,175.250122 
z"/>
<path fill="#91685F" opacity="1.000000" stroke="none" 
	d="
M390.751526,169.022125 
	C390.819458,169.235916 390.621918,169.519852 390.178650,169.902771 
	C390.117310,169.698608 390.301727,169.395447 390.751526,169.022125 
z"/>
<path fill="#91685F" opacity="1.000000" stroke="none" 
	d="
M389.733154,170.005707 
	C389.815826,170.236496 389.637726,170.541611 389.192902,170.912750 
	C389.108215,170.679184 389.290283,170.379593 389.733154,170.005707 
z"/>
<path fill="#91685F" opacity="1.000000" stroke="none" 
	d="
M388.688751,170.989136 
	C388.746246,171.236572 388.504852,171.547043 387.961975,171.937973 
	C387.903595,171.696335 388.146729,171.374237 388.688751,170.989136 
z"/>
<path fill="#975D56" opacity="1.000000" stroke="none" 
	d="
M321.056030,228.235809 
	C321.238922,228.136795 321.517029,228.310822 321.956421,228.686661 
	C321.814209,228.732132 321.492035,228.605576 321.056030,228.235809 
z"/>
<path fill="#8A5F58" opacity="1.000000" stroke="none" 
	d="
M291.988678,124.725952 
	C291.750671,124.819374 291.447021,124.646965 291.071838,124.213364 
	C291.307861,124.121475 291.615448,124.290794 291.988678,124.725952 
z"/>
<path fill="#8A5F58" opacity="1.000000" stroke="none" 
	d="
M292.857544,125.973145 
	C292.647888,125.992279 292.410919,125.724380 292.089600,125.201370 
	C292.280243,125.192886 292.555237,125.439499 292.857544,125.973145 
z"/>
<path fill="#91685F" opacity="1.000000" stroke="none" 
	d="
M326.869385,135.227829 
	C327.071136,135.150940 327.422089,135.329269 327.892273,135.780182 
	C327.680511,135.862854 327.349518,135.672958 326.869385,135.227829 
z"/>
<path fill="#91685F" opacity="1.000000" stroke="none" 
	d="
M328.052002,136.228119 
	C328.222504,136.188522 328.499023,136.390167 328.894470,136.822922 
	C328.728241,136.859146 328.443115,136.664261 328.052002,136.228119 
z"/>
<path fill="#9B766E" opacity="1.000000" stroke="none" 
	d="
M393.273804,252.973602 
	C392.983887,252.957336 392.988159,252.557175 392.985565,252.357193 
	C393.290710,252.271759 393.598419,252.386307 394.025146,252.736328 
	C393.950684,252.977814 393.757202,252.983826 393.273804,252.973602 
z"/>
<path fill="#91685F" opacity="1.000000" stroke="none" 
	d="
M329.029083,137.274597 
	C329.238037,137.239960 329.528534,137.492828 329.927673,138.027039 
	C329.727722,138.059616 329.419189,137.810852 329.029083,137.274597 
z"/>
<path fill="#975D56" opacity="1.000000" stroke="none" 
	d="
M366.272644,172.015350 
	C366.313629,171.938660 366.551331,171.712265 366.921692,171.272720 
	C366.881897,171.351898 366.686859,171.620605 366.272644,172.015350 
z"/>
<path fill="#91685F" opacity="1.000000" stroke="none" 
	d="
M319.079315,150.778870 
	C318.848602,150.912262 318.440063,150.742294 317.816284,150.310791 
	C318.034515,150.191345 318.468018,150.333420 319.079315,150.778870 
z"/>
<path fill="#91685F" opacity="1.000000" stroke="none" 
	d="
M320.975159,152.712463 
	C320.749664,152.772491 320.434845,152.550964 320.025085,152.043854 
	C320.248718,151.982483 320.567261,152.206696 320.975159,152.712463 
z"/>
<path fill="#9C584B" opacity="1.000000" stroke="none" 
	d="
M353.276733,232.968277 
	C353.257629,232.779678 353.521851,232.508667 354.045258,232.107910 
	C354.056335,232.280746 353.808228,232.583313 353.276733,232.968277 
z"/>
<path fill="#9C5142" opacity="1.000000" stroke="none" 
	d="
M329.773621,117.932388 
	C329.755219,118.001991 329.484314,117.936989 329.123535,117.696075 
	C329.171783,117.702332 329.334290,117.794876 329.773621,117.932388 
z"/>
<path fill="#975D56" opacity="1.000000" stroke="none" 
	d="
M319.853333,227.237808 
	C320.050903,227.163376 320.392090,227.351425 320.870361,227.799011 
	C320.670593,227.872437 320.333740,227.686356 319.853333,227.237808 
z"/>
<path fill="#91685F" opacity="1.000000" stroke="none" 
	d="
M321.986023,153.738953 
	C321.748871,153.825317 321.442963,153.648331 321.074982,153.203354 
	C321.314331,153.115448 321.615814,153.295517 321.986023,153.738953 
z"/>
<path fill="#975D56" opacity="1.000000" stroke="none" 
	d="
M377.101807,209.898346 
	C377.064697,209.667755 377.319244,209.431625 377.817566,209.101074 
	C377.838715,209.302017 377.616119,209.597397 377.101807,209.898346 
z"/>
<path fill="#9C5142" opacity="1.000000" stroke="none" 
	d="
M329.720825,208.801941 
	C329.734589,208.867188 329.469208,209.038116 329.040070,209.154175 
	C329.064758,209.035416 329.253204,208.971512 329.720825,208.801941 
z"/>
<path fill="#975D56" opacity="1.000000" stroke="none" 
	d="
M378.284607,208.975815 
	C378.253662,208.772263 378.508484,208.481644 379.041321,208.078003 
	C379.069672,208.272903 378.820007,208.580841 378.284607,208.975815 
z"/>
<path fill="#91685F" opacity="1.000000" stroke="none" 
	d="
M322.956604,154.765320 
	C322.788330,154.805008 322.508911,154.605545 322.107910,154.175568 
	C322.272736,154.138779 322.559113,154.332474 322.956604,154.765320 
z"/>
<path fill="#91685F" opacity="1.000000" stroke="none" 
	d="
M353.692444,204.977051 
	C353.760406,205.245407 353.524841,205.563873 352.979004,205.943909 
	C352.908783,205.679352 353.148865,205.353241 353.692444,204.977051 
z"/>
<path fill="#975D56" opacity="1.000000" stroke="none" 
	d="
M294.818390,155.245117 
	C295.037354,155.153122 295.397797,155.330093 295.871826,155.788696 
	C295.643585,155.884918 295.301727,155.699493 294.818390,155.245117 
z"/>
<path fill="#91685F" opacity="1.000000" stroke="none" 
	d="
M354.806152,204.071503 
	C354.786316,204.179871 354.528961,204.408707 354.109497,204.839233 
	C354.154480,204.757935 354.361572,204.474960 354.806152,204.071503 
z"/>
<path fill="#86514B" opacity="1.000000" stroke="none" 
	d="
M296.074982,204.067871 
	C296.317566,204.022293 296.562012,204.280243 296.905487,204.786057 
	C296.695282,204.813080 296.386047,204.592239 296.074982,204.067871 
z"/>
<path fill="#9B766E" opacity="1.000000" stroke="none" 
	d="
M349.131134,161.020508 
	C349.069092,160.831146 349.549805,160.917282 349.787292,160.973846 
	C349.824646,161.447357 349.594330,161.724411 349.131134,161.020508 
z"/>
</svg>