<svg version="1.1" id="Layer_1" xmlns="http://www.w3.org/2000/svg" xmlns:xlink="http://www.w3.org/1999/xlink" x="0px" y="0px"
	 width="100%" viewBox="0 0 1024 1024" enable-background="new 0 0 1024 1024" xml:space="preserve">
<path fill="#010000" opacity="1.000000" stroke="none" 
	d="
M1025.000000,334.000000 
	C1025.000000,564.666687 1025.000000,794.833313 1025.000000,1025.000000 
	C683.666687,1025.000000 342.333344,1025.000000 1.000000,1025.000000 
	C1.000000,683.666687 1.000000,342.333344 1.000000,1.000000 
	C342.333344,1.000000 683.666687,1.000000 1025.000000,1.000000 
	C1025.000000,111.833336 1025.000000,222.666672 1025.000000,334.000000 
M664.446045,75.461525 
	C664.446045,75.461525 664.835571,75.466621 664.394714,76.122627 
	C653.474182,88.106148 639.601135,95.889488 625.303162,103.164825 
	C639.922363,102.685822 652.199158,96.017853 664.660828,89.360123 
	C661.695923,95.643890 662.361328,103.419319 656.271362,107.446205 
	C656.141724,109.357079 656.345337,111.273811 655.823425,112.966866 
	C654.895081,115.978355 653.390503,118.810089 652.418396,121.811394 
	C652.081665,122.850784 652.162292,124.618690 652.824890,125.281158 
	C655.144104,127.600029 661.066284,126.113983 662.335876,123.030533 
	C663.759766,119.572273 665.047241,116.057877 666.457275,112.404160 
	C671.565979,114.102905 676.009338,115.580421 680.452759,117.057938 
	C680.805969,116.635796 681.159241,116.213654 681.512512,115.791512 
	C680.190430,113.465775 679.202087,110.800056 677.366150,108.997810 
	C676.719360,108.362869 674.019775,109.945961 672.217468,110.327316 
	C670.210022,110.752068 667.312744,110.941902 668.230713,107.967728 
	C670.532532,100.510132 673.554565,93.274834 676.287720,85.950371 
	C676.727600,86.053528 677.167542,86.156685 677.607422,86.259842 
	C678.824768,99.567329 680.749695,112.644455 689.062134,123.613701 
	C692.549255,122.240929 695.705811,120.998299 699.770752,119.398079 
	C689.233276,108.556755 682.556763,95.974724 680.853271,81.083122 
	C689.788574,84.292435 698.723938,87.501747 707.659241,90.711067 
	C708.084778,90.196327 708.510315,89.681595 708.935852,89.166855 
	C707.728149,86.967003 706.496643,84.779808 705.318481,82.564232 
	C703.663635,79.452049 701.787231,78.879051 698.494446,80.831665 
	C696.667114,81.915291 693.743896,81.922691 691.537720,81.425400 
	C687.665649,80.552597 683.965149,78.919144 680.106384,77.060875 
	C680.019348,76.704559 679.932312,76.348244 680.043640,75.514015 
	C680.050659,75.341682 680.057617,75.169350 680.448242,74.402245 
	C682.187439,70.514221 683.926697,66.626198 685.921021,62.167789 
	C683.205505,60.948135 679.888794,59.458496 676.210205,57.806305 
	C674.661072,62.449383 673.418396,66.356354 672.047485,70.217773 
	C671.148560,72.749535 669.919678,74.705826 666.583008,73.171394 
	C665.994385,72.900696 664.709290,74.144562 663.940186,75.191521 
	C664.005737,75.358772 664.071228,75.526024 664.448059,75.564682 
	C664.688843,75.579826 664.870667,75.483894 665.220398,74.015358 
	C663.845398,73.142387 662.470459,72.269417 660.562561,71.025795 
	C654.561523,69.070221 648.560425,67.114655 642.559387,65.159081 
	C642.351746,65.827332 642.144043,66.495583 641.936401,67.163834 
	C647.794739,70.697975 654.367859,72.397148 661.546204,74.164047 
	C661.931213,74.241333 662.316223,74.318619 663.142456,74.802315 
	C663.450745,75.052017 663.758972,75.301720 664.446045,75.461525 
M324.764587,87.255936 
	C327.033081,90.196335 329.301575,93.136742 330.884064,96.298668 
	C329.131897,97.171021 327.379730,98.043373 325.627594,98.915718 
	C325.742584,99.336205 325.857605,99.756691 325.972626,100.177177 
	C327.545044,99.900841 329.158173,99.765114 330.682770,99.323586 
	C336.953827,97.507477 337.438293,97.798492 339.063782,105.400238 
	C334.829773,107.036499 330.488312,108.714279 326.146851,110.392059 
	C327.412323,111.601402 328.710114,111.950172 329.844879,111.660454 
	C332.562866,110.966545 335.159760,109.754738 337.896149,109.195618 
	C339.172150,108.934891 340.658569,109.703758 341.897583,110.778572 
	C339.380890,111.720352 336.864197,112.662140 334.091339,113.699776 
	C334.091339,120.324059 334.091339,127.208130 334.091339,134.092209 
	C334.648132,134.234222 335.204895,134.376251 335.761688,134.518280 
	C337.397797,129.959366 339.045441,125.404549 340.665100,120.839806 
	C341.464447,118.587135 342.212006,116.316116 343.186249,114.760132 
	C345.597198,121.148109 348.008148,127.536079 350.416931,133.918350 
	C357.334747,131.219818 357.745270,130.129990 355.523956,124.108658 
	C353.817596,119.483322 352.402222,114.750648 351.347687,109.363136 
	C353.610016,111.634415 355.747406,114.054283 358.191376,116.109581 
	C359.290100,117.033585 361.157684,117.858589 362.384705,117.553886 
	C363.346924,117.314934 364.709076,114.426765 364.441498,114.157310 
	C361.903534,111.601273 359.260742,109.029007 356.236053,107.111351 
	C353.357910,105.286591 351.877350,107.617516 350.273773,109.635246 
	C348.172760,106.563072 348.739899,104.633957 352.463898,103.410614 
	C355.638245,102.367836 358.629517,100.767815 361.834259,99.355934 
	C355.320435,91.769615 352.404633,100.630096 347.428864,101.722969 
	C347.719208,98.408607 341.009247,97.034698 346.793152,93.101372 
	C351.192352,91.316803 355.591522,89.532234 360.578033,88.233643 
	C365.603546,101.288033 369.206543,114.512131 364.980316,128.725204 
	C376.418335,115.094887 373.889374,100.338654 368.773438,85.178299 
	C372.088074,84.304054 375.100037,79.896767 377.252075,86.151344 
	C380.770050,96.376038 384.438873,106.548805 387.961182,116.772049 
	C389.429688,121.034348 391.093323,121.535690 394.751709,118.845825 
	C397.356537,116.930634 396.955658,114.688889 396.008301,112.198036 
	C392.873138,103.954834 389.791321,95.691269 386.634857,87.456284 
	C384.007996,80.602936 383.966309,80.601135 390.592529,77.044655 
	C391.315948,76.656395 392.195648,76.559326 393.002869,76.327194 
	C389.906525,73.919884 387.859558,72.609161 385.668060,72.289528 
	C384.341125,72.096001 381.853729,73.111519 381.494141,74.143562 
	C379.390106,80.181854 373.623627,79.771973 369.146027,80.931229 
	C368.269379,81.158203 365.991516,76.025970 364.390564,73.347206 
	C364.139862,72.927734 364.108490,72.381653 363.881775,71.942596 
	C362.524628,69.314041 363.401764,67.826408 365.956543,66.413185 
	C371.721313,63.224262 377.290283,59.681389 382.915619,56.296551 
	C378.018066,52.391190 373.654510,51.842075 370.845367,55.010670 
	C366.046692,60.423378 362.053711,67.012512 352.263153,65.279922 
	C353.755707,69.057930 354.890015,71.594368 355.764648,74.217400 
	C357.275360,78.748329 358.624847,83.333023 359.505737,87.307831 
	C355.350403,84.774864 351.260376,82.308609 348.459839,89.027184 
	C348.073090,89.954903 346.770416,90.500793 345.355743,91.038544 
	C345.139252,90.047752 344.478180,88.883842 344.784698,88.096710 
	C345.990479,85.000031 347.500732,82.021889 348.902771,78.368538 
	C348.145599,77.721344 347.388397,77.074150 346.572174,76.376503 
	C348.691345,75.107933 350.443207,74.059235 352.195099,73.010529 
	C352.183655,72.503090 352.172241,71.995659 352.160828,71.488220 
	C349.375824,70.577377 346.590790,69.666527 344.702179,69.048851 
	C342.163849,71.753448 340.346375,73.689987 338.150787,76.029427 
	C334.854797,68.093582 331.285034,66.718033 323.579285,69.597725 
	C325.899231,72.133629 328.162872,74.607956 330.932465,77.635323 
	C325.371155,79.962631 320.679993,81.925812 315.547516,84.073662 
	C319.044434,85.114082 321.717224,85.909294 324.764587,87.255936 
M587.710266,51.690578 
	C588.157104,50.883263 588.603943,50.075951 589.899292,49.220829 
	C594.566956,49.553642 599.234558,49.886452 603.902222,50.219265 
	C604.063538,49.777462 604.224854,49.335663 604.386169,48.893864 
	C602.610962,47.018799 600.973938,44.973656 598.987305,43.358574 
	C598.267456,42.773346 596.294556,42.705532 595.601746,43.270409 
	C589.173035,48.511600 582.820190,44.265999 576.351013,44.068092 
	C577.380615,36.564194 573.962708,33.893719 564.823669,34.517487 
	C565.921143,37.153629 566.987000,39.713676 568.659790,43.731583 
	C557.232544,41.887180 547.240601,40.274429 536.888550,38.603550 
	C534.578918,59.183571 534.322754,80.634773 523.857910,100.234299 
	C527.432434,97.851685 531.225708,95.347160 532.900879,91.832932 
	C536.726013,83.808487 539.514099,75.289742 543.551453,66.907196 
	C543.827393,66.884972 544.103271,66.862755 545.173279,66.936302 
	C552.078003,68.155220 559.448059,67.226036 565.765808,71.323555 
	C559.502502,73.716820 553.798218,71.434532 547.666077,68.717201 
	C546.797302,76.886642 545.999878,84.385414 545.135010,92.518570 
	C547.543335,92.355011 549.466736,92.286926 551.375305,92.080902 
	C554.693237,91.722740 558.005188,90.935921 561.313782,90.966354 
	C564.767212,90.998123 568.270325,91.534584 571.648071,92.304733 
	C575.350342,93.148888 578.934265,94.512314 581.996338,96.080666 
	C578.603210,95.622925 575.210144,95.165184 571.817017,94.707443 
	C571.655884,95.240814 571.494812,95.774193 571.333679,96.307571 
	C572.462158,97.100311 573.604187,97.874435 574.716614,98.689140 
	C578.575745,101.515602 582.675232,104.080101 586.197937,107.278801 
	C589.007263,109.829857 591.513062,109.387901 593.592285,107.237381 
	C596.087891,104.656189 593.759888,102.607178 591.705383,101.185715 
	C588.747559,99.139244 585.559692,97.425278 583.286377,95.933380 
	C589.808594,95.810043 590.645569,95.005005 591.410034,88.739120 
	C591.727722,86.135498 592.691162,83.577888 592.747864,80.985947 
	C592.790466,79.037773 592.403442,76.552368 591.190552,75.262138 
	C590.110291,74.112923 587.635925,73.949760 585.773499,73.939186 
	C583.213806,73.924652 580.631104,74.787140 578.097839,74.631172 
	C576.815308,74.552216 575.619751,73.062233 574.384827,72.210175 
	C575.742432,71.678894 577.137939,70.616386 578.450867,70.710167 
	C583.583252,71.076698 588.681885,71.891907 593.809021,72.367966 
	C596.159912,72.586250 598.547974,72.405113 601.270508,72.405113 
	C597.375427,65.405151 596.336426,65.084831 590.558105,67.881088 
	C589.287659,68.495857 587.633728,68.675735 586.204163,68.542625 
	C579.594177,67.927109 572.988953,67.218941 566.413452,66.314835 
	C565.269043,66.157478 564.275879,64.899834 563.938782,63.779827 
	C568.127197,64.204041 572.483582,64.056992 576.453735,65.223839 
	C579.956970,66.253479 583.794373,65.305946 584.197388,61.638676 
	C584.559204,58.346195 586.290405,58.528866 588.669800,58.853203 
	C592.450195,59.368530 596.259460,59.672070 600.871704,60.149605 
	C596.817383,53.085205 596.315125,53.011356 590.226318,55.273037 
	C588.831482,55.791134 587.010498,55.161972 585.385681,55.060814 
	C585.166016,54.542446 584.946350,54.024082 584.726624,53.505718 
	C585.576233,53.017990 586.425781,52.530262 587.710266,51.690578 
M466.239990,43.140995 
	C465.531982,42.205498 464.805176,41.283527 464.120361,40.331341 
	C463.066345,38.865852 462.311218,36.495514 460.949554,36.079559 
	C457.755859,35.103996 454.277710,35.059689 449.582947,34.471607 
	C452.433960,38.149117 454.163208,40.379642 456.366119,43.221134 
	C453.364471,43.963139 451.188965,44.500919 448.133545,44.987278 
	C440.926758,45.311844 433.720001,45.636414 426.046509,45.981998 
	C428.057098,66.543633 434.295776,87.409241 426.720764,108.599739 
	C428.743835,107.338951 430.309387,105.963409 431.439209,104.293159 
	C436.882996,96.245316 438.532684,87.123016 438.057068,77.663101 
	C437.665802,69.880470 436.875641,62.086861 435.681366,54.388226 
	C435.049072,50.312321 436.238220,48.914631 440.094482,48.723957 
	C443.404755,48.560287 446.696045,48.012989 450.814697,47.699741 
	C453.559662,47.472588 456.304596,47.245434 459.012207,47.021374 
	C459.819000,54.587482 459.819031,54.587852 452.965393,55.315914 
	C451.308533,55.491928 449.646515,55.628143 447.995361,55.846764 
	C445.074890,56.233433 442.160950,56.669296 439.244263,57.084572 
	C439.291534,57.658916 439.338837,58.233257 439.386108,58.807598 
	C441.083710,58.807598 442.792206,58.931374 444.476654,58.782513 
	C448.292542,58.445278 452.095856,57.704601 455.905701,57.694939 
	C457.342255,57.691292 458.782776,59.253143 460.221466,60.101334 
	C459.045929,61.137512 457.936554,62.962208 456.682953,63.067322 
	C452.295837,63.435200 447.858978,63.209877 443.002258,63.209877 
	C443.738190,70.200867 444.367615,76.966751 445.223724,83.703835 
	C445.414062,85.201881 446.297302,87.749557 447.044769,87.818176 
	C449.006500,87.998306 451.117340,87.219978 453.079224,86.558174 
	C455.318268,85.802902 457.403137,84.329216 459.669403,84.027725 
	C460.781158,83.879829 462.151550,85.675873 463.404877,86.592148 
	C462.468445,87.842430 461.744202,89.872894 460.555634,90.196136 
	C457.045685,91.150711 453.352386,91.431900 449.730286,91.973045 
	C446.246246,92.493553 442.761597,93.009689 439.277191,93.527756 
	C439.312622,94.072472 439.348022,94.617188 439.383453,95.161911 
	C440.884796,95.276123 442.406525,95.604988 443.883636,95.464409 
	C448.359192,95.038467 452.813568,94.395531 457.283325,93.901764 
	C464.409424,93.114563 464.347626,93.143791 465.130280,100.153870 
	C465.301697,101.689133 466.042236,104.387703 466.637756,104.420433 
	C468.478577,104.521614 470.955872,104.130783 472.083679,102.911407 
	C473.152985,101.755371 473.352997,99.213577 473.019012,97.455223 
	C472.171326,92.992516 474.023743,91.486595 478.198669,91.242073 
	C483.015320,90.959953 487.816101,90.326790 492.606415,89.710983 
	C494.936798,89.411415 497.227661,88.804436 499.536438,88.336609 
	C499.617035,87.905960 499.697632,87.475311 499.778229,87.044662 
	C497.502869,85.485008 495.290344,83.816925 492.910217,82.438072 
	C492.274475,82.069756 490.556915,82.272682 490.298615,82.742554 
	C486.135986,90.314507 478.551697,86.811028 471.807251,89.384933 
	C472.062134,86.452103 471.817474,83.111931 472.461060,82.930992 
	C475.198578,82.161331 478.383667,81.609917 481.065948,82.299263 
	C486.899078,83.798325 489.690186,81.824318 489.016296,75.833275 
	C488.474945,71.020493 487.960449,66.204674 487.295746,60.125515 
	C485.270477,58.694740 482.370300,54.837921 477.866547,60.060673 
	C476.686462,61.429119 473.474884,61.290184 471.187225,61.330555 
	C470.351593,61.345303 468.797729,59.862228 468.806885,59.076866 
	C468.819672,57.982754 469.836121,56.126507 470.697144,55.952408 
	C474.109131,55.262505 477.636963,55.170876 481.104645,54.723930 
	C484.762848,54.252422 488.401428,53.628670 492.598633,52.987392 
	C488.414429,48.029884 484.050385,46.354485 482.170746,48.650257 
	C478.322876,53.349880 473.034973,52.046612 467.674957,53.187008 
	C468.134796,50.986328 468.425446,49.595394 468.766296,47.964230 
	C467.615814,47.474461 466.479889,46.990887 465.024109,46.371140 
	C466.067108,45.906136 466.522522,45.703083 467.830872,45.661133 
	C476.376099,44.685863 484.921356,43.710590 493.466583,42.735321 
	C493.534058,42.097038 493.601532,41.458752 493.669006,40.820469 
	C491.010284,39.267941 488.483063,37.286072 485.617645,36.408173 
	C484.682037,36.121532 482.980530,38.882210 481.414490,39.927315 
	C480.225739,40.720600 478.734161,41.190990 477.311401,41.476807 
	C473.890564,42.164013 470.431030,42.658310 466.239990,43.140995 
M488.553650,864.499023 
	C488.601868,888.163818 488.660583,911.828613 488.691803,935.493408 
	C488.700897,942.393066 488.665619,942.381470 481.730042,941.948181 
	C443.563080,939.563782 406.401978,932.035034 370.445831,919.120667 
	C262.866760,880.481445 180.700943,811.717163 127.044876,710.452942 
	C88.415665,637.548584 73.373222,559.716980 82.803963,477.396362 
	C89.771828,416.574127 110.133583,360.479736 141.957260,308.461792 
	C173.893082,256.260498 215.379150,213.018539 265.874817,178.434998 
	C271.307098,174.714539 276.760559,171.025009 282.648346,167.018906 
	C274.422760,158.562622 266.583618,150.435272 258.664337,142.386795 
	C253.577698,137.217178 251.368607,136.983932 245.169571,140.988602 
	C209.661301,163.927460 178.069229,191.487564 150.387695,223.333588 
	C119.148109,259.272919 93.960312,299.148315 74.856163,342.881927 
	C45.623085,409.802887 33.206032,479.578552 37.818146,552.468689 
	C41.903282,617.030396 59.544636,677.724915 90.156631,734.534485 
	C122.544952,794.640564 166.107803,845.333374 220.563812,886.704468 
	C273.981415,927.286682 332.996490,956.165222 398.200928,971.862183 
	C480.910065,991.773315 563.620850,990.588013 645.349121,967.196228 
	C747.021912,938.095886 830.692017,881.414185 895.521240,797.672363 
	C939.930908,740.307251 969.194092,675.930725 982.611389,604.468994 
	C996.231506,531.927002 992.091248,460.314301 969.851440,390.098816 
	C942.297241,303.104340 893.578796,229.882645 822.966125,171.736374 
	C809.239075,160.432831 794.274658,150.632690 779.891479,140.124695 
	C775.640137,137.018723 771.929504,137.751251 768.402039,141.425400 
	C763.672119,146.352112 758.793884,151.136017 754.039490,156.039597 
	C750.626831,159.559326 747.312744,163.174576 743.737854,166.977921 
	C745.876404,168.372375 747.375488,169.398056 748.920166,170.349762 
	C768.699585,182.536728 786.940857,196.733841 804.325562,212.123611 
	C856.760681,258.541840 895.478882,314.516571 920.174805,379.929321 
	C958.187378,480.614044 956.311523,580.997864 914.421143,680.026489 
	C881.348999,758.208862 828.365723,820.543518 758.176636,868.087830 
	C697.843750,908.955688 631.231506,933.082764 558.741638,940.799194 
	C550.222534,941.705994 541.642090,942.036560 533.088135,942.634460 
	C533.088135,872.292175 533.088135,802.810974 533.088135,733.241882 
	C534.207581,733.292114 534.718323,733.236389 535.189819,733.347412 
	C581.687439,744.303833 628.903503,748.401917 676.559814,747.620605 
	C691.530334,747.375183 706.500061,746.077271 721.428772,744.783142 
	C727.353455,744.269592 733.270386,742.801575 738.975037,741.060730 
	C741.118774,740.406616 743.978577,737.826050 744.087463,735.980591 
	C744.196106,734.140137 741.639832,731.412659 739.589172,730.334656 
	C735.948730,728.420776 731.892883,727.085632 727.860840,726.165161 
	C710.977783,722.310974 694.118835,718.275635 677.105286,715.082825 
	C631.044128,706.438782 584.456604,701.809082 537.813171,697.769958 
	C533.438904,697.391174 531.872009,696.117188 531.945435,691.529236 
	C532.188110,676.367432 532.119080,661.195190 531.820923,646.033813 
	C531.739197,641.878296 533.058716,640.463684 537.084351,639.436951 
	C577.432312,629.145081 617.895569,619.234497 657.956787,607.909180 
	C698.552612,596.432617 738.282410,582.244934 776.273376,563.678040 
	C784.147461,559.829773 791.561035,554.943726 798.812561,549.988342 
	C800.489990,548.842041 801.809082,545.021606 801.153137,543.204102 
	C800.471497,541.315308 797.301270,539.455627 795.033020,539.193298 
	C790.617065,538.682373 785.987122,538.794617 781.592957,539.528931 
	C760.573059,543.041504 739.438782,546.106628 718.645203,550.691772 
	C658.041016,564.055420 598.665710,581.751099 540.376953,603.073730 
	C537.822510,604.008179 535.203552,604.766113 532.638000,605.598694 
	C532.305237,604.609070 532.108704,604.297241 532.108459,603.985229 
	C532.088074,573.487915 532.111755,542.990540 532.030701,512.493408 
	C532.022583,509.445343 533.647827,509.152252 536.056274,508.787720 
	C557.298035,505.572205 578.639282,502.846893 599.723877,498.794739 
	C646.276550,489.848022 691.994934,477.745667 735.877747,459.497406 
	C742.595398,456.703888 749.181519,453.241730 755.155945,449.115173 
	C760.797668,445.218384 759.488586,439.892456 752.831177,437.836517 
	C749.843140,436.913727 746.643066,436.468445 743.509094,436.259888 
	C714.784485,434.348267 686.211304,436.265533 657.813965,440.507111 
	C616.612122,446.661194 576.828674,458.316528 537.726990,472.456390 
	C536.110901,473.040771 534.430115,473.446228 532.083130,474.141235 
	C532.083130,471.606445 532.087952,469.965057 532.082336,468.323761 
	C532.027710,452.324158 532.127380,436.321442 531.812317,420.326965 
	C531.727295,416.010773 533.164917,413.905792 537.037231,412.025970 
	C573.547546,394.301910 608.881958,374.662201 639.742981,347.860168 
	C652.250305,336.997925 663.940613,325.418976 672.820679,311.314087 
	C674.748840,308.251556 677.350464,304.215668 674.081482,301.351257 
	C671.985107,299.514313 667.592285,299.290894 664.490295,299.834930 
	C659.289795,300.746918 654.169922,302.528595 649.238647,304.500732 
	C613.158508,318.929871 579.511047,337.774750 548.108582,360.646606 
	C542.931030,364.417694 537.753906,368.189423 531.665466,372.624573 
	C531.665466,366.067169 531.343262,360.609619 531.799866,355.217987 
	C532.032288,352.473175 533.047180,349.342987 534.758972,347.243744 
	C556.087463,321.088135 575.363464,293.550201 591.257446,263.745300 
	C595.085571,256.566742 598.414673,249.061722 601.208740,241.427063 
	C602.105286,238.977280 601.481873,234.004929 599.882202,233.080978 
	C597.631409,231.781006 593.415344,232.340851 590.776733,233.622620 
	C586.966736,235.473404 583.294739,238.220215 580.476135,241.394714 
	C567.547729,255.955353 554.901855,270.767914 542.233276,285.557587 
	C538.383423,290.052094 534.786011,294.762817 531.072937,299.374512 
	C530.718994,294.711945 531.122742,290.460602 531.620850,286.220367 
	C535.005005,257.411774 537.982361,228.568832 536.943787,199.502991 
	C536.718933,193.211517 535.821350,186.881577 534.511780,180.722839 
	C534.004517,178.337082 531.721191,174.911591 529.836426,174.620804 
	C527.810486,174.308197 524.378723,176.586029 523.175598,178.667282 
	C519.363220,185.262100 515.630371,192.051865 513.077637,199.198730 
	C504.468201,223.302399 500.118134,248.454636 495.862335,273.596466 
	C494.628357,280.886566 493.710175,288.230164 492.502594,296.544983 
	C489.796143,294.177704 487.873779,292.648560 486.124237,290.942261 
	C470.090698,275.304901 452.928680,261.013275 434.007843,249.037628 
	C426.476471,244.270767 418.179626,240.582703 409.903778,237.206314 
	C407.577423,236.257233 403.135864,237.248474 401.432800,239.035233 
	C400.052582,240.483231 400.468384,244.863770 401.590546,247.231216 
	C404.215851,252.769897 407.387085,258.136810 410.965271,263.122559 
	C432.344757,292.912140 457.426392,319.323853 484.785492,343.662109 
	C486.610199,345.285370 488.095032,348.299896 488.168579,350.715057 
	C488.579193,364.204468 488.530182,377.708557 488.571106,391.207825 
	C488.576721,393.059998 488.208069,394.913300 487.925446,397.593994 
	C485.744598,396.031433 484.392517,395.122467 483.104218,394.130676 
	C461.274200,377.324890 438.529388,361.937500 413.825775,349.611542 
	C394.834564,340.135834 375.386597,331.825623 354.330444,328.145020 
	C350.311127,327.442444 345.155182,325.603943 342.445587,330.372589 
	C339.751770,335.113403 343.256500,338.938416 346.147858,342.391876 
	C361.837402,361.131531 380.948822,376.129364 401.502594,388.762695 
	C428.437317,405.318024 456.498962,420.044952 484.164703,435.398315 
	C487.119568,437.038116 488.617188,438.643219 488.591858,442.214966 
	C488.457092,461.213440 488.583954,480.213654 488.580200,499.213287 
	C488.579895,500.782196 488.280884,502.351044 488.065735,504.457489 
	C486.021515,503.715912 484.646088,503.232361 483.281616,502.719635 
	C465.507446,496.040833 447.861023,488.995636 429.935455,482.751740 
	C393.068207,469.910065 355.549164,459.340302 317.047211,452.612122 
	C308.708801,451.154999 300.187408,450.538940 291.722290,450.157684 
	C289.594940,450.061859 286.380219,451.897491 285.492889,453.730286 
	C284.820862,455.118347 286.585052,458.348724 288.102539,459.980499 
	C290.451599,462.506531 293.375061,464.584076 296.297119,466.478210 
	C321.714783,482.954498 349.023224,495.701904 377.063568,506.929108 
	C411.458954,520.700745 446.837982,531.453552 482.730652,540.522644 
	C487.028046,541.608521 488.645081,543.362305 488.615936,547.905457 
	C488.447113,574.236755 488.583405,600.570007 488.582275,626.902588 
	C488.582214,628.462463 488.284454,630.022400 488.074738,632.076477 
	C486.077789,631.211853 484.717377,630.671326 483.397980,630.044434 
	C416.748169,598.378357 348.233093,571.579834 277.133881,551.670532 
	C263.697937,547.908142 249.879303,545.438782 236.138092,542.912109 
	C233.831955,542.488098 229.622635,544.219299 228.822433,546.056519 
	C227.986832,547.974915 229.448166,552.015137 231.241013,553.737061 
	C235.777069,558.093750 240.841187,562.001160 246.083511,565.505493 
	C279.602600,587.911438 315.753021,605.370361 352.611664,621.405212 
	C395.152710,639.912109 439.151001,654.390869 483.504395,667.809570 
	C487.475830,669.011108 488.647278,670.918884 488.615265,674.867615 
	C488.462433,693.699097 488.578094,712.532654 488.561554,731.365479 
	C488.560150,732.959595 488.287933,734.553467 488.114777,736.438904 
	C485.771698,736.136719 483.956940,735.969788 482.166412,735.661987 
	C420.765472,725.107544 359.019897,718.824158 296.626129,721.163879 
	C288.348419,721.474243 280.063477,722.832153 271.912262,724.387878 
	C269.928375,724.766479 267.229187,727.772400 267.105286,729.713684 
	C266.983459,731.623291 269.295135,734.554871 271.283569,735.549500 
	C275.255646,737.536438 279.650085,738.928101 284.022003,739.826965 
	C317.143158,746.636902 350.145416,754.217834 383.491974,759.684082 
	C416.015411,765.015381 448.888702,768.245789 481.644501,772.090942 
	C486.716797,772.686401 488.664642,773.969421 488.610321,779.503845 
	C488.335388,807.499756 488.525024,835.500183 488.553650,864.499023 
M568.752563,828.517822 
	C565.266907,829.286743 561.269836,829.246460 558.432007,831.040222 
	C555.266235,833.041382 554.284180,837.042419 555.951965,840.895691 
	C557.968994,845.555542 561.955627,846.595276 566.630371,846.593506 
	C618.763245,846.573853 670.896057,846.618103 723.028931,846.615906 
	C724.845093,846.615784 726.722900,846.551147 728.466431,846.104492 
	C735.088318,844.408142 737.472595,836.748352 732.454102,832.103882 
	C730.252991,830.066772 726.596558,828.591125 723.594910,828.580627 
	C672.295959,828.400696 620.996155,828.490601 568.752563,828.517822 
M364.499573,846.531555 
	C395.971924,846.585510 427.444305,846.639160 458.916656,846.693481 
	C465.860748,846.705505 470.033875,843.450073 470.058105,837.998840 
	C470.084442,832.071655 465.882751,828.455872 459.119385,828.461304 
	C409.329559,828.501587 359.539703,828.517517 309.749878,828.559509 
	C306.098145,828.562622 302.386871,828.325989 298.809784,828.883789 
	C294.218292,829.599792 291.558929,833.263428 291.789825,837.805237 
	C292.024689,842.425659 294.788574,845.072632 299.081573,846.129517 
	C300.667572,846.519897 302.391083,846.422485 304.052155,846.426575 
	C323.867950,846.474609 343.683746,846.499756 364.499573,846.531555 
M602.499512,885.399292 
	C618.660706,885.416382 634.822937,885.541321 650.982666,885.397583 
	C657.496094,885.339661 661.431641,881.645020 661.438721,876.351929 
	C661.445679,871.178406 657.146057,867.355957 650.887207,867.363342 
	C622.065002,867.397156 593.242432,867.471313 564.421570,867.716187 
	C562.302368,867.734131 559.809509,868.755981 558.168091,870.124146 
	C555.260864,872.547485 554.422974,875.939026 556.000000,879.625122 
	C557.788879,883.806396 561.079041,885.565308 565.511780,885.541992 
	C577.507568,885.479004 589.503479,885.444885 602.499512,885.399292 
M455.353027,867.258911 
	C429.239929,867.293823 403.126617,867.275757 377.013947,867.401367 
	C370.587769,867.432312 367.000580,870.749146 366.953125,876.059998 
	C366.903351,881.631897 370.766693,885.193542 377.075806,885.211548 
	C404.020081,885.288452 430.964478,885.340088 457.908813,885.341492 
	C459.876434,885.341614 462.331024,885.511719 463.704681,884.472778 
	C466.148010,882.625000 469.291809,880.085144 469.621338,877.511963 
	C469.956055,874.897522 467.926575,870.970581 465.681396,869.313110 
	C463.330261,867.577454 459.491211,867.857422 455.353027,867.258911 
M552.932617,94.585365 
	C546.906372,96.872414 540.880066,99.159462 534.853821,101.446510 
	C545.425415,104.704803 554.795593,100.179138 564.722961,98.241905 
	C560.970703,92.276993 558.082214,91.308762 552.932617,94.585365 
M646.674988,102.766472 
	C646.195740,103.397301 645.716492,104.028137 645.237244,104.658974 
	C648.345642,106.375969 651.487610,107.912888 655.020203,107.358765 
	C655.164734,106.832405 655.309326,106.306053 655.453857,105.779694 
	C652.761414,104.819687 650.068970,103.859680 646.674988,102.766472 
z"/>
<path fill="#B02431" opacity="1.000000" stroke="none" 
	d="
M488.552704,863.999023 
	C488.525024,835.500183 488.335388,807.499756 488.610321,779.503845 
	C488.664642,773.969421 486.716797,772.686401 481.644501,772.090942 
	C448.888702,768.245789 416.015411,765.015381 383.491974,759.684082 
	C350.145416,754.217834 317.143158,746.636902 284.022003,739.826965 
	C279.650085,738.928101 275.255646,737.536438 271.283569,735.549500 
	C269.295135,734.554871 266.983459,731.623291 267.105286,729.713684 
	C267.229187,727.772400 269.928375,724.766479 271.912262,724.387878 
	C280.063477,722.832153 288.348419,721.474243 296.626129,721.163879 
	C359.019897,718.824158 420.765472,725.107544 482.166412,735.661987 
	C483.956940,735.969788 485.771698,736.136719 488.114777,736.438904 
	C488.287933,734.553467 488.560150,732.959595 488.561554,731.365479 
	C488.578094,712.532654 488.462433,693.699097 488.615265,674.867615 
	C488.647278,670.918884 487.475830,669.011108 483.504395,667.809570 
	C439.151001,654.390869 395.152710,639.912109 352.611664,621.405212 
	C315.753021,605.370361 279.602600,587.911438 246.083511,565.505493 
	C240.841187,562.001160 235.777069,558.093750 231.241013,553.737061 
	C229.448166,552.015137 227.986832,547.974915 228.822433,546.056519 
	C229.622635,544.219299 233.831955,542.488098 236.138092,542.912109 
	C249.879303,545.438782 263.697937,547.908142 277.133881,551.670532 
	C348.233093,571.579834 416.748169,598.378357 483.397980,630.044434 
	C484.717377,630.671326 486.077789,631.211853 488.074738,632.076477 
	C488.284454,630.022400 488.582214,628.462463 488.582275,626.902588 
	C488.583405,600.570007 488.447113,574.236755 488.615936,547.905457 
	C488.645081,543.362305 487.028046,541.608521 482.730652,540.522644 
	C446.837982,531.453552 411.458954,520.700745 377.063568,506.929108 
	C349.023224,495.701904 321.714783,482.954498 296.297119,466.478210 
	C293.375061,464.584076 290.451599,462.506531 288.102539,459.980499 
	C286.585052,458.348724 284.820862,455.118347 285.492889,453.730286 
	C286.380219,451.897491 289.594940,450.061859 291.722290,450.157684 
	C300.187408,450.538940 308.708801,451.154999 317.047211,452.612122 
	C355.549164,459.340302 393.068207,469.910065 429.935455,482.751740 
	C447.861023,488.995636 465.507446,496.040833 483.281616,502.719635 
	C484.646088,503.232361 486.021515,503.715912 488.065735,504.457489 
	C488.280884,502.351044 488.579895,500.782196 488.580200,499.213287 
	C488.583954,480.213654 488.457092,461.213440 488.591858,442.214966 
	C488.617188,438.643219 487.119568,437.038116 484.164703,435.398315 
	C456.498962,420.044952 428.437317,405.318024 401.502594,388.762695 
	C380.948822,376.129364 361.837402,361.131531 346.147858,342.391876 
	C343.256500,338.938416 339.751770,335.113403 342.445587,330.372589 
	C345.155182,325.603943 350.311127,327.442444 354.330444,328.145020 
	C375.386597,331.825623 394.834564,340.135834 413.825775,349.611542 
	C438.529388,361.937500 461.274200,377.324890 483.104218,394.130676 
	C484.392517,395.122467 485.744598,396.031433 487.925446,397.593994 
	C488.208069,394.913300 488.576721,393.059998 488.571106,391.207825 
	C488.530182,377.708557 488.579193,364.204468 488.168579,350.715057 
	C488.095032,348.299896 486.610199,345.285370 484.785492,343.662109 
	C457.426392,319.323853 432.344757,292.912140 410.965271,263.122559 
	C407.387085,258.136810 404.215851,252.769897 401.590546,247.231216 
	C400.468384,244.863770 400.052582,240.483231 401.432800,239.035233 
	C403.135864,237.248474 407.577423,236.257233 409.903778,237.206314 
	C418.179626,240.582703 426.476471,244.270767 434.007843,249.037628 
	C452.928680,261.013275 470.090698,275.304901 486.124237,290.942261 
	C487.873779,292.648560 489.796143,294.177704 492.502594,296.544983 
	C493.710175,288.230164 494.628357,280.886566 495.862335,273.596466 
	C500.118134,248.454636 504.468201,223.302399 513.077637,199.198730 
	C515.630371,192.051865 519.363220,185.262100 523.175598,178.667282 
	C524.378723,176.586029 527.810486,174.308197 529.836426,174.620804 
	C531.721191,174.911591 534.004517,178.337082 534.511780,180.722839 
	C535.821350,186.881577 536.718933,193.211517 536.943787,199.502991 
	C537.982361,228.568832 535.005005,257.411774 531.620850,286.220367 
	C531.122742,290.460602 530.718994,294.711945 531.072937,299.374512 
	C534.786011,294.762817 538.383423,290.052094 542.233276,285.557587 
	C554.901855,270.767914 567.547729,255.955353 580.476135,241.394714 
	C583.294739,238.220215 586.966736,235.473404 590.776733,233.622620 
	C593.415344,232.340851 597.631409,231.781006 599.882202,233.080978 
	C601.481873,234.004929 602.105286,238.977280 601.208740,241.427063 
	C598.414673,249.061722 595.085571,256.566742 591.257446,263.745300 
	C575.363464,293.550201 556.087463,321.088135 534.758972,347.243744 
	C533.047180,349.342987 532.032288,352.473175 531.799866,355.217987 
	C531.343262,360.609619 531.665466,366.067169 531.665466,372.624573 
	C537.753906,368.189423 542.931030,364.417694 548.108582,360.646606 
	C579.511047,337.774750 613.158508,318.929871 649.238647,304.500732 
	C654.169922,302.528595 659.289795,300.746918 664.490295,299.834930 
	C667.592285,299.290894 671.985107,299.514313 674.081482,301.351257 
	C677.350464,304.215668 674.748840,308.251556 672.820679,311.314087 
	C663.940613,325.418976 652.250305,336.997925 639.742981,347.860168 
	C608.881958,374.662201 573.547546,394.301910 537.037231,412.025970 
	C533.164917,413.905792 531.727295,416.010773 531.812317,420.326965 
	C532.127380,436.321442 532.027710,452.324158 532.082336,468.323761 
	C532.087952,469.965057 532.083130,471.606445 532.083130,474.141235 
	C534.430115,473.446228 536.110901,473.040771 537.726990,472.456390 
	C576.828674,458.316528 616.612122,446.661194 657.813965,440.507111 
	C686.211304,436.265533 714.784485,434.348267 743.509094,436.259888 
	C746.643066,436.468445 749.843140,436.913727 752.831177,437.836517 
	C759.488586,439.892456 760.797668,445.218384 755.155945,449.115173 
	C749.181519,453.241730 742.595398,456.703888 735.877747,459.497406 
	C691.994934,477.745667 646.276550,489.848022 599.723877,498.794739 
	C578.639282,502.846893 557.298035,505.572205 536.056274,508.787720 
	C533.647827,509.152252 532.022583,509.445343 532.030701,512.493408 
	C532.111755,542.990540 532.088074,573.487915 532.108459,603.985229 
	C532.108704,604.297241 532.305237,604.609070 532.638000,605.598694 
	C535.203552,604.766113 537.822510,604.008179 540.376953,603.073730 
	C598.665710,581.751099 658.041016,564.055420 718.645203,550.691772 
	C739.438782,546.106628 760.573059,543.041504 781.592957,539.528931 
	C785.987122,538.794617 790.617065,538.682373 795.033020,539.193298 
	C797.301270,539.455627 800.471497,541.315308 801.153137,543.204102 
	C801.809082,545.021606 800.489990,548.842041 798.812561,549.988342 
	C791.561035,554.943726 784.147461,559.829773 776.273376,563.678040 
	C738.282410,582.244934 698.552612,596.432617 657.956787,607.909180 
	C617.895569,619.234497 577.432312,629.145081 537.084351,639.436951 
	C533.058716,640.463684 531.739197,641.878296 531.820923,646.033813 
	C532.119080,661.195190 532.188110,676.367432 531.945435,691.529236 
	C531.872009,696.117188 533.438904,697.391174 537.813171,697.769958 
	C584.456604,701.809082 631.044128,706.438782 677.105286,715.082825 
	C694.118835,718.275635 710.977783,722.310974 727.860840,726.165161 
	C731.892883,727.085632 735.948730,728.420776 739.589172,730.334656 
	C741.639832,731.412659 744.196106,734.140137 744.087463,735.980591 
	C743.978577,737.826050 741.118774,740.406616 738.975037,741.060730 
	C733.270386,742.801575 727.353455,744.269592 721.428772,744.783142 
	C706.500061,746.077271 691.530334,747.375183 676.559814,747.620605 
	C628.903503,748.401917 581.687439,744.303833 535.189819,733.347412 
	C534.718323,733.236389 534.207581,733.292114 533.088135,733.241882 
	C533.088135,802.810974 533.088135,872.292175 533.088135,942.634460 
	C541.642090,942.036560 550.222534,941.705994 558.741638,940.799194 
	C631.231506,933.082764 697.843750,908.955688 758.176636,868.087830 
	C828.365723,820.543518 881.348999,758.208862 914.421143,680.026489 
	C956.311523,580.997864 958.187378,480.614044 920.174805,379.929321 
	C895.478882,314.516571 856.760681,258.541840 804.325562,212.123611 
	C786.940857,196.733841 768.699585,182.536728 748.920166,170.349762 
	C747.375488,169.398056 745.876404,168.372375 743.737854,166.977921 
	C747.312744,163.174576 750.626831,159.559326 754.039490,156.039597 
	C758.793884,151.136017 763.672119,146.352112 768.402039,141.425400 
	C771.929504,137.751251 775.640137,137.018723 779.891479,140.124695 
	C794.274658,150.632690 809.239075,160.432831 822.966125,171.736374 
	C893.578796,229.882645 942.297241,303.104340 969.851440,390.098816 
	C992.091248,460.314301 996.231506,531.927002 982.611389,604.468994 
	C969.194092,675.930725 939.930908,740.307251 895.521240,797.672363 
	C830.692017,881.414185 747.021912,938.095886 645.349121,967.196228 
	C563.620850,990.588013 480.910065,991.773315 398.200928,971.862183 
	C332.996490,956.165222 273.981415,927.286682 220.563812,886.704468 
	C166.107803,845.333374 122.544952,794.640564 90.156631,734.534485 
	C59.544636,677.724915 41.903282,617.030396 37.818146,552.468689 
	C33.206032,479.578552 45.623085,409.802887 74.856163,342.881927 
	C93.960312,299.148315 119.148109,259.272919 150.387695,223.333588 
	C178.069229,191.487564 209.661301,163.927460 245.169571,140.988602 
	C251.368607,136.983932 253.577698,137.217178 258.664337,142.386795 
	C266.583618,150.435272 274.422760,158.562622 282.648346,167.018906 
	C276.760559,171.025009 271.307098,174.714539 265.874817,178.434998 
	C215.379150,213.018539 173.893082,256.260498 141.957260,308.461792 
	C110.133583,360.479736 89.771828,416.574127 82.803963,477.396362 
	C73.373222,559.716980 88.415665,637.548584 127.044876,710.452942 
	C180.700943,811.717163 262.866760,880.481445 370.445831,919.120667 
	C406.401978,932.035034 443.563080,939.563782 481.730042,941.948181 
	C488.665619,942.381470 488.700897,942.393066 488.691803,935.493408 
	C488.660583,911.828613 488.601868,888.163818 488.552704,863.999023 
z"/>
<path fill="#AE2531" opacity="1.000000" stroke="none" 
	d="
M569.224487,828.519409 
	C620.996155,828.490601 672.295959,828.400696 723.594910,828.580627 
	C726.596558,828.591125 730.252991,830.066772 732.454102,832.103882 
	C737.472595,836.748352 735.088318,844.408142 728.466431,846.104492 
	C726.722900,846.551147 724.845093,846.615784 723.028931,846.615906 
	C670.896057,846.618103 618.763245,846.573853 566.630371,846.593506 
	C561.955627,846.595276 557.968994,845.555542 555.951965,840.895691 
	C554.284180,837.042419 555.266235,833.041382 558.432007,831.040222 
	C561.269836,829.246460 565.266907,829.286743 569.224487,828.519409 
z"/>
<path fill="#AC2430" opacity="1.000000" stroke="none" 
	d="
M363.999573,846.531250 
	C343.683746,846.499756 323.867950,846.474609 304.052155,846.426575 
	C302.391083,846.422485 300.667572,846.519897 299.081573,846.129517 
	C294.788574,845.072632 292.024689,842.425659 291.789825,837.805237 
	C291.558929,833.263428 294.218292,829.599792 298.809784,828.883789 
	C302.386871,828.325989 306.098145,828.562622 309.749878,828.559509 
	C359.539703,828.517517 409.329559,828.501587 459.119385,828.461304 
	C465.882751,828.455872 470.084442,832.071655 470.058105,837.998840 
	C470.033875,843.450073 465.860748,846.705505 458.916656,846.693481 
	C427.444305,846.639160 395.971924,846.585510 363.999573,846.531250 
z"/>
<path fill="#AB2530" opacity="1.000000" stroke="none" 
	d="
M601.999451,885.399292 
	C589.503479,885.444885 577.507568,885.479004 565.511780,885.541992 
	C561.079041,885.565308 557.788879,883.806396 556.000000,879.625122 
	C554.422974,875.939026 555.260864,872.547485 558.168091,870.124146 
	C559.809509,868.755981 562.302368,867.734131 564.421570,867.716187 
	C593.242432,867.471313 622.065002,867.397156 650.887207,867.363342 
	C657.146057,867.355957 661.445679,871.178406 661.438721,876.351929 
	C661.431641,881.645020 657.496094,885.339661 650.982666,885.397583 
	C634.822937,885.541321 618.660706,885.416382 601.999451,885.399292 
z"/>
<path fill="#AA2430" opacity="1.000000" stroke="none" 
	d="
M455.827759,867.257690 
	C459.491211,867.857422 463.330261,867.577454 465.681396,869.313110 
	C467.926575,870.970581 469.956055,874.897522 469.621338,877.511963 
	C469.291809,880.085144 466.148010,882.625000 463.704681,884.472778 
	C462.331024,885.511719 459.876434,885.341614 457.908813,885.341492 
	C430.964478,885.340088 404.020081,885.288452 377.075806,885.211548 
	C370.766693,885.193542 366.903351,881.631897 366.953125,876.059998 
	C367.000580,870.749146 370.587769,867.432312 377.013947,867.401367 
	C403.126617,867.275757 429.239929,867.293823 455.827759,867.257690 
z"/>
<path fill="#A82B33" opacity="1.000000" stroke="none" 
	d="
M449.013489,45.038692 
	C451.188965,44.500919 453.364471,43.963139 456.366119,43.221134 
	C454.163208,40.379642 452.433960,38.149117 449.582947,34.471607 
	C454.277710,35.059689 457.755859,35.103996 460.949554,36.079559 
	C462.311218,36.495514 463.066345,38.865852 464.120361,40.331341 
	C464.805176,41.283527 465.531982,42.205498 466.611816,43.469379 
	C466.981750,44.365185 466.979858,44.932610 466.977966,45.500031 
	C466.522522,45.703083 466.067108,45.906136 465.024109,46.371140 
	C466.479889,46.990887 467.615814,47.474461 468.766296,47.964230 
	C468.425446,49.595394 468.134796,50.986328 467.674957,53.187008 
	C473.034973,52.046612 478.322876,53.349880 482.170746,48.650257 
	C484.050385,46.354485 488.414429,48.029884 492.598633,52.987392 
	C488.401428,53.628670 484.762848,54.252422 481.104645,54.723930 
	C477.636963,55.170876 474.109131,55.262505 470.697144,55.952408 
	C469.836121,56.126507 468.819672,57.982754 468.806885,59.076866 
	C468.797729,59.862228 470.351593,61.345303 471.187225,61.330555 
	C473.474884,61.290184 476.686462,61.429119 477.866547,60.060673 
	C482.370300,54.837921 485.270477,58.694740 487.295746,60.125515 
	C487.960449,66.204674 488.474945,71.020493 489.016296,75.833275 
	C489.690186,81.824318 486.899078,83.798325 481.065948,82.299263 
	C478.383667,81.609917 475.198578,82.161331 472.461060,82.930992 
	C471.817474,83.111931 472.062134,86.452103 471.807251,89.384933 
	C478.551697,86.811028 486.135986,90.314507 490.298615,82.742554 
	C490.556915,82.272682 492.274475,82.069756 492.910217,82.438072 
	C495.290344,83.816925 497.502869,85.485008 499.778229,87.044662 
	C499.697632,87.475311 499.617035,87.905960 499.536438,88.336609 
	C497.227661,88.804436 494.936798,89.411415 492.606415,89.710983 
	C487.816101,90.326790 483.015320,90.959953 478.198669,91.242073 
	C474.023743,91.486595 472.171326,92.992516 473.019012,97.455223 
	C473.352997,99.213577 473.152985,101.755371 472.083679,102.911407 
	C470.955872,104.130783 468.478577,104.521614 466.637756,104.420433 
	C466.042236,104.387703 465.301697,101.689133 465.130280,100.153870 
	C464.347626,93.143791 464.409424,93.114563 457.283325,93.901764 
	C452.813568,94.395531 448.359192,95.038467 443.883636,95.464409 
	C442.406525,95.604988 440.884796,95.276123 439.383453,95.161911 
	C439.348022,94.617188 439.312622,94.072472 439.277191,93.527756 
	C442.761597,93.009689 446.246246,92.493553 449.730286,91.973045 
	C453.352386,91.431900 457.045685,91.150711 460.555634,90.196136 
	C461.744202,89.872894 462.468445,87.842430 463.404877,86.592148 
	C462.151550,85.675873 460.781158,83.879829 459.669403,84.027725 
	C457.403137,84.329216 455.318268,85.802902 453.079224,86.558174 
	C451.117340,87.219978 449.006500,87.998306 447.044769,87.818176 
	C446.297302,87.749557 445.414062,85.201881 445.223724,83.703835 
	C444.367615,76.966751 443.738190,70.200867 443.002258,63.209877 
	C447.858978,63.209877 452.295837,63.435200 456.682953,63.067322 
	C457.936554,62.962208 459.045929,61.137512 460.221466,60.101337 
	C458.782776,59.253143 457.342255,57.691292 455.905701,57.694939 
	C452.095856,57.704601 448.292542,58.445278 444.476654,58.782513 
	C442.792206,58.931374 441.083710,58.807598 439.386108,58.807598 
	C439.338837,58.233257 439.291534,57.658916 439.244263,57.084572 
	C442.160950,56.669296 445.074890,56.233433 447.995361,55.846764 
	C449.646515,55.628143 451.308533,55.491928 452.965393,55.315914 
	C459.819031,54.587852 459.819000,54.587482 459.012207,47.021374 
	C456.304596,47.245434 453.559662,47.472588 450.318115,47.403969 
	C449.552185,46.418362 449.282837,45.728523 449.013489,45.038692 
M459.873657,80.811096 
	C463.612366,80.329170 463.229034,76.629860 461.916718,75.845528 
	C459.902496,74.641685 456.758728,74.945999 454.193726,75.310364 
	C453.541626,75.403000 453.086731,78.119034 452.935852,79.668098 
	C452.896332,80.074043 454.292175,80.920937 455.105499,81.039589 
	C456.388336,81.226730 457.736053,80.969116 459.873657,80.811096 
M451.691559,70.152802 
	C454.486877,73.644821 457.838531,71.729370 460.902832,70.800194 
	C461.228363,70.701477 461.262787,67.226898 460.398193,66.144196 
	C458.813934,64.160286 452.447662,66.660614 451.691559,70.152802 
M479.551239,66.556610 
	C477.994781,63.869976 470.922180,62.707291 469.785889,65.181938 
	C469.221832,66.410378 470.477173,68.474228 470.909454,70.160126 
	C473.794128,69.224777 476.678802,68.289429 479.551239,66.556610 
M477.119080,78.791458 
	C480.431610,78.459801 481.258911,75.561668 479.691528,74.026085 
	C478.316742,72.679268 474.978180,72.939461 472.604156,73.244743 
	C471.861084,73.340294 471.433441,75.888664 470.861389,77.314262 
	C472.669220,77.853546 474.477020,78.392822 477.119080,78.791458 
z"/>
<path fill="#AD2934" opacity="1.000000" stroke="none" 
	d="
M679.845337,75.991928 
	C679.932312,76.348244 680.019348,76.704559 680.138245,77.796143 
	C680.165039,79.458405 680.160034,80.385406 680.155029,81.312408 
	C682.556763,95.974724 689.233276,108.556755 699.770752,119.398079 
	C695.705811,120.998299 692.549255,122.240929 689.062134,123.613701 
	C680.749695,112.644455 678.824768,99.567329 677.607422,86.259842 
	C677.167542,86.156685 676.727600,86.053528 676.287720,85.950371 
	C673.554565,93.274834 670.532532,100.510132 668.230713,107.967728 
	C667.312744,110.941902 670.210022,110.752068 672.217468,110.327316 
	C674.019775,109.945961 676.719360,108.362869 677.366150,108.997810 
	C679.202087,110.800056 680.190430,113.465775 681.512512,115.791512 
	C681.159241,116.213654 680.805969,116.635796 680.452759,117.057938 
	C676.009338,115.580421 671.565979,114.102905 666.457275,112.404160 
	C665.047241,116.057877 663.759766,119.572273 662.335876,123.030533 
	C661.066284,126.113983 655.144104,127.600029 652.824890,125.281158 
	C652.162292,124.618690 652.081665,122.850784 652.418396,121.811394 
	C653.390503,118.810089 654.895081,115.978355 655.823425,112.966866 
	C656.345337,111.273811 656.141724,109.357079 656.271362,107.446205 
	C662.361328,103.419319 661.695923,95.643890 664.660828,89.360123 
	C652.199158,96.017853 639.922363,102.685822 625.303162,103.164825 
	C639.601135,95.889488 653.474182,88.106148 664.465210,75.627724 
	C664.307495,74.922508 664.044189,74.774567 663.745789,74.688995 
	C664.709290,74.144562 665.994385,72.900696 666.583008,73.171394 
	C669.919678,74.705826 671.148560,72.749535 672.047485,70.217773 
	C673.418396,66.356354 674.661072,62.449383 676.210205,57.806305 
	C679.888794,59.458496 683.205505,60.948135 685.921021,62.167789 
	C683.926697,66.626198 682.187439,70.514221 680.180054,74.808517 
	C679.798157,75.465897 679.775940,75.724945 679.845337,75.991928 
z"/>
<path fill="#AE2A33" opacity="1.000000" stroke="none" 
	d="
M360.041931,87.895172 
	C358.624847,83.333023 357.275360,78.748329 355.764648,74.217400 
	C354.890015,71.594368 353.755707,69.057930 352.263153,65.279922 
	C362.053711,67.012512 366.046692,60.423378 370.845367,55.010670 
	C373.654510,51.842075 378.018066,52.391190 382.915619,56.296551 
	C377.290283,59.681389 371.721313,63.224262 365.956543,66.413185 
	C363.401764,67.826408 362.524628,69.314041 363.881775,71.942596 
	C364.108490,72.381653 364.139862,72.927734 364.390564,73.347206 
	C365.991516,76.025970 368.269379,81.158203 369.146027,80.931229 
	C373.623627,79.771973 379.390106,80.181854 381.494141,74.143562 
	C381.853729,73.111519 384.341125,72.096001 385.668060,72.289528 
	C387.859558,72.609161 389.906525,73.919884 393.002869,76.327194 
	C392.195648,76.559326 391.315948,76.656395 390.592529,77.044655 
	C383.966309,80.601135 384.007996,80.602936 386.634857,87.456284 
	C389.791321,95.691269 392.873138,103.954834 396.008301,112.198036 
	C396.955658,114.688889 397.356537,116.930634 394.751709,118.845825 
	C391.093323,121.535690 389.429688,121.034348 387.961182,116.772049 
	C384.438873,106.548805 380.770050,96.376038 377.252075,86.151344 
	C375.100037,79.896767 372.088074,84.304054 368.773438,85.178299 
	C373.889374,100.338654 376.418335,115.094887 364.980316,128.725204 
	C369.206543,114.512131 365.603546,101.288033 360.281403,88.029709 
	C359.984772,87.825768 360.041931,87.895180 360.041931,87.895172 
z"/>
<path fill="#A72C35" opacity="1.000000" stroke="none" 
	d="
M563.212830,64.150391 
	C564.275879,64.899834 565.269043,66.157478 566.413452,66.314835 
	C572.988953,67.218941 579.594177,67.927109 586.204163,68.542625 
	C587.633728,68.675735 589.287659,68.495857 590.558105,67.881088 
	C596.336426,65.084831 597.375427,65.405151 601.270508,72.405113 
	C598.547974,72.405113 596.159912,72.586250 593.809021,72.367966 
	C588.681885,71.891907 583.583252,71.076698 578.450867,70.710167 
	C577.137939,70.616386 575.742432,71.678894 574.384827,72.210190 
	C575.619751,73.062233 576.815308,74.552216 578.097839,74.631172 
	C580.631104,74.787140 583.213806,73.924652 585.773499,73.939186 
	C587.635925,73.949760 590.110291,74.112923 591.190552,75.262138 
	C592.403442,76.552368 592.790466,79.037773 592.747864,80.985947 
	C592.691162,83.577888 591.727722,86.135498 591.410034,88.739120 
	C590.645569,95.005005 589.808594,95.810043 582.903198,95.771332 
	C582.520020,95.609276 582.569763,95.649437 582.569763,95.649437 
	C578.934265,94.512314 575.350342,93.148888 571.648071,92.304733 
	C568.270325,91.534584 564.767212,90.998123 561.313782,90.966354 
	C558.005188,90.935921 554.693237,91.722740 551.375305,92.080902 
	C549.466736,92.286926 547.543335,92.355011 545.135010,92.518570 
	C545.999878,84.385414 546.797302,76.886642 547.666077,68.717201 
	C553.798218,71.434532 559.502502,73.716820 565.765808,71.323555 
	C559.448059,67.226036 552.078003,68.155220 544.719849,66.511368 
	C545.317688,65.450394 546.333984,64.365616 547.428223,64.280312 
	C549.204102,64.141884 551.046753,64.575661 552.833069,64.915733 
	C556.559387,65.625137 556.947083,63.233154 556.995544,60.533566 
	C557.039429,58.089001 558.450439,54.997890 553.941711,54.797356 
	C551.832764,54.703556 549.752319,53.967800 547.658997,53.522995 
	C557.630920,53.578621 558.548096,53.594154 559.313904,47.777214 
	C562.269958,47.681347 564.921265,47.824638 567.572571,47.967930 
	C567.583862,48.442490 567.595093,48.917049 567.606384,49.391605 
	C567.002136,49.920525 566.397888,50.449440 565.546143,51.212891 
	C561.522827,55.175907 561.288818,59.485970 563.212830,64.150391 
M579.114502,90.812202 
	C580.362000,89.775917 581.609436,88.739632 582.856873,87.703323 
	C581.479614,86.868576 580.177490,85.841057 578.699341,85.265137 
	C577.669678,84.863937 576.300781,84.774101 575.260925,85.104385 
	C574.052307,85.488312 573.037537,86.482948 571.938660,87.212509 
	C572.736633,88.350800 573.309937,89.859444 574.398071,90.519417 
	C575.412415,91.134705 576.974121,90.847504 579.114502,90.812202 
M577.381775,77.418770 
	C575.939880,78.077118 574.497925,78.735458 573.056030,79.393799 
	C574.339844,80.387016 575.510071,81.620911 576.943542,82.296867 
	C578.078003,82.831863 579.632690,83.048683 580.822021,82.733131 
	C582.009705,82.418037 582.975220,81.265419 584.038086,80.479973 
	C583.075745,79.620461 582.216492,78.576241 581.116882,77.962662 
	C580.306641,77.510506 579.182434,77.620895 577.381775,77.418770 
M555.059082,76.795731 
	C555.239258,82.543869 560.082520,79.367805 562.613770,80.594742 
	C563.067505,80.814667 565.010681,79.419601 564.945068,78.957878 
	C564.796326,77.910942 563.922058,76.237617 563.169617,76.138855 
	C560.627869,75.805260 558.010681,76.047279 555.059082,76.795731 
M562.882385,83.618088 
	C560.759705,83.412331 558.598022,82.894699 556.533508,83.153328 
	C555.700195,83.257721 555.079529,85.059967 554.362122,86.089531 
	C556.920959,86.761330 559.459717,87.600151 562.061707,87.912621 
	C562.423706,87.956085 563.097107,85.406044 562.882385,83.618088 
z"/>
<path fill="#A52831" opacity="1.000000" stroke="none" 
	d="
M542.723511,66.971802 
	C539.514099,75.289742 536.726013,83.808487 532.900879,91.832932 
	C531.225708,95.347160 527.432434,97.851685 523.857910,100.234299 
	C534.322754,80.634773 534.578918,59.183571 536.888550,38.603550 
	C547.240601,40.274429 557.232544,41.887180 568.659790,43.731583 
	C566.987000,39.713676 565.921143,37.153629 564.823669,34.517487 
	C573.962708,33.893719 577.380615,36.564194 576.351013,44.068092 
	C582.820190,44.265999 589.173035,48.511600 595.601746,43.270409 
	C596.294556,42.705532 598.267456,42.773346 598.987305,43.358574 
	C600.973938,44.973656 602.610962,47.018799 604.386169,48.893864 
	C604.224854,49.335663 604.063538,49.777462 603.902222,50.219265 
	C599.234558,49.886452 594.566956,49.553642 589.073181,49.122299 
	C578.150452,47.838013 568.053833,46.652252 557.546021,45.345573 
	C554.839172,44.849449 552.504578,44.629509 550.256897,44.063831 
	C546.595947,43.142433 545.236145,44.373936 544.965271,48.175591 
	C544.517334,54.462318 543.500549,60.708519 542.723511,66.971802 
z"/>
<path fill="#B53039" opacity="1.000000" stroke="none" 
	d="
M350.857483,110.065704 
	C352.402222,114.750648 353.817596,119.483322 355.523956,124.108658 
	C357.745270,130.129990 357.334747,131.219818 350.416931,133.918350 
	C348.008148,127.536079 345.597198,121.148109 343.087494,114.054062 
	C342.675690,112.233978 342.362640,111.119957 342.049591,110.005936 
	C340.658569,109.703758 339.172150,108.934891 337.896149,109.195618 
	C335.159760,109.754738 332.562866,110.966545 329.844879,111.660454 
	C328.710114,111.950172 327.412323,111.601402 326.146851,110.392059 
	C330.488312,108.714279 334.829773,107.036499 339.063782,105.400238 
	C337.438293,97.798492 336.953827,97.507477 330.682770,99.323586 
	C329.158173,99.765114 327.545044,99.900841 325.972626,100.177177 
	C325.857605,99.756691 325.742584,99.336205 325.627594,98.915718 
	C327.379730,98.043373 329.131897,97.171021 331.439270,96.204796 
	C332.278534,96.111954 332.561462,96.094498 333.141602,95.949371 
	C333.978149,95.526810 334.516388,95.213417 335.400818,94.806320 
	C340.969940,93.518044 341.833466,90.128098 340.555054,85.480377 
	C339.994568,83.442665 339.818573,81.299202 339.904541,79.177673 
	C343.193420,79.100975 346.045685,79.050369 348.897980,78.999756 
	C347.500732,82.021889 345.990479,85.000031 344.784698,88.096710 
	C344.478180,88.883842 345.139252,90.047752 345.651276,91.577255 
	C345.964539,92.413513 345.982300,92.711060 346.000031,93.008598 
	C341.009247,97.034698 347.719208,98.408607 347.428864,101.722969 
	C352.404633,100.630096 355.320435,91.769615 361.834259,99.355934 
	C358.629517,100.767815 355.638245,102.367836 352.463898,103.410614 
	C348.739899,104.633957 348.172760,106.563072 350.603638,109.827499 
	C350.933533,110.019760 350.857483,110.065704 350.857483,110.065704 
z"/>
<path fill="#A52831" opacity="1.000000" stroke="none" 
	d="
M448.573517,45.012985 
	C449.282837,45.728523 449.552185,46.418362 449.908630,47.371765 
	C446.696045,48.012989 443.404755,48.560287 440.094482,48.723957 
	C436.238220,48.914631 435.049072,50.312321 435.681366,54.388226 
	C436.875641,62.086861 437.665802,69.880470 438.057068,77.663101 
	C438.532684,87.123016 436.882996,96.245316 431.439209,104.293159 
	C430.309387,105.963409 428.743835,107.338951 426.720764,108.599739 
	C434.295776,87.409241 428.057098,66.543633 426.046509,45.981998 
	C433.720001,45.636414 440.926758,45.311844 448.573517,45.012985 
z"/>
<path fill="#AC333A" opacity="1.000000" stroke="none" 
	d="
M563.575806,63.965111 
	C561.288818,59.485970 561.522827,55.175907 565.582153,51.623337 
	C568.578491,54.435490 575.357971,54.968506 576.990112,52.673855 
	C579.681641,48.889862 583.729858,48.641315 587.275269,52.042496 
	C586.425781,52.530262 585.576233,53.017990 584.726624,53.505718 
	C584.946350,54.024082 585.166016,54.542446 585.385681,55.060814 
	C587.010498,55.161972 588.831482,55.791134 590.226318,55.273037 
	C596.315125,53.011356 596.817383,53.085205 600.871704,60.149605 
	C596.259460,59.672070 592.450195,59.368530 588.669800,58.853203 
	C586.290405,58.528866 584.559204,58.346195 584.197388,61.638676 
	C583.794373,65.305946 579.956970,66.253479 576.453735,65.223839 
	C572.483582,64.056992 568.127197,64.204041 563.575806,63.965111 
M575.546692,59.991486 
	C575.121460,59.057144 574.894592,57.518494 574.233826,57.301556 
	C572.238098,56.646336 570.080078,56.324692 567.972290,56.252201 
	C567.146851,56.223804 566.286743,57.203007 565.442383,57.723320 
	C566.144775,58.444736 566.762390,59.656494 567.565491,59.795383 
	C569.951477,60.208000 572.410522,60.198341 575.546692,59.991486 
z"/>
<path fill="#A52831" opacity="1.000000" stroke="none" 
	d="
M348.900391,78.684151 
	C346.045685,79.050369 343.193420,79.100975 339.545593,79.088531 
	C334.678802,80.136955 330.579834,81.163170 326.569977,82.464050 
	C326.048096,82.633354 325.985107,84.217087 325.379639,85.535339 
	C324.829773,86.184837 324.609894,86.444672 324.389984,86.704506 
	C321.717224,85.909294 319.044434,85.114082 315.547516,84.073662 
	C320.679993,81.925812 325.371155,79.962631 330.932465,77.635323 
	C328.162872,74.607956 325.899231,72.133629 323.579285,69.597725 
	C331.285034,66.718033 334.854797,68.093582 338.150787,76.029427 
	C340.346375,73.689987 342.163849,71.753448 344.702179,69.048851 
	C346.590790,69.666527 349.375824,70.577377 352.160828,71.488220 
	C352.172241,71.995659 352.183655,72.503090 352.195099,73.010529 
	C350.443207,74.059235 348.691345,75.107933 346.572174,76.376503 
	C347.388397,77.074150 348.145599,77.721344 348.900391,78.684151 
z"/>
<path fill="#0C0303" opacity="1.000000" stroke="none" 
	d="
M543.137451,66.939499 
	C543.500549,60.708519 544.517334,54.462318 544.965271,48.175591 
	C545.236145,44.373936 546.595947,43.142433 550.256897,44.063831 
	C552.504578,44.629509 554.839172,44.849449 557.630920,45.608189 
	C558.421143,46.666603 558.715149,47.341484 559.009155,48.016365 
	C558.548096,53.594154 557.630920,53.578621 547.658997,53.522995 
	C549.752319,53.967800 551.832764,54.703556 553.941711,54.797356 
	C558.450439,54.997890 557.039429,58.089001 556.995544,60.533566 
	C556.947083,63.233154 556.559387,65.625137 552.833069,64.915733 
	C551.046753,64.575661 549.204102,64.141884 547.428223,64.280312 
	C546.333984,64.365616 545.317688,65.450394 544.322754,66.463478 
	C544.103271,66.862755 543.827393,66.884972 543.137451,66.939499 
z"/>
<path fill="#A52831" opacity="1.000000" stroke="none" 
	d="
M553.250977,94.383583 
	C558.082214,91.308762 560.970703,92.276993 564.722961,98.241905 
	C554.795593,100.179138 545.425415,104.704803 534.853821,101.446510 
	C540.880066,99.159462 546.906372,96.872414 553.250977,94.383583 
z"/>
<path fill="#A82B33" opacity="1.000000" stroke="none" 
	d="
M582.494995,95.589340 
	C585.559692,97.425278 588.747559,99.139244 591.705383,101.185715 
	C593.759888,102.607178 596.087891,104.656189 593.592285,107.237381 
	C591.513062,109.387901 589.007263,109.829857 586.197937,107.278801 
	C582.675232,104.080101 578.575745,101.515602 574.716614,98.689140 
	C573.604187,97.874435 572.462158,97.100311 571.333679,96.307571 
	C571.494812,95.774193 571.655884,95.240814 571.817017,94.707443 
	C575.210144,95.165184 578.603210,95.622925 582.283081,95.865051 
	C582.569763,95.649437 582.520020,95.609276 582.494995,95.589340 
z"/>
<path fill="#99262F" opacity="1.000000" stroke="none" 
	d="
M680.504150,81.197769 
	C680.160034,80.385406 680.165039,79.458405 680.181396,78.067841 
	C683.965149,78.919144 687.665649,80.552597 691.537720,81.425400 
	C693.743896,81.922691 696.667114,81.915291 698.494446,80.831665 
	C701.787231,78.879051 703.663635,79.452049 705.318481,82.564232 
	C706.496643,84.779808 707.728149,86.967003 708.935852,89.166855 
	C708.510315,89.681595 708.084778,90.196327 707.659241,90.711067 
	C698.723938,87.501747 689.788574,84.292435 680.504150,81.197769 
z"/>
<path fill="#A52831" opacity="1.000000" stroke="none" 
	d="
M341.973572,110.392258 
	C342.362640,111.119957 342.675690,112.233978 342.985840,113.700699 
	C342.212006,116.316116 341.464447,118.587135 340.665100,120.839806 
	C339.045441,125.404549 337.397797,129.959366 335.761688,134.518280 
	C335.204895,134.376251 334.648132,134.234222 334.091339,134.092209 
	C334.091339,127.208130 334.091339,120.324059 334.091339,113.699776 
	C336.864197,112.662140 339.380890,111.720352 341.973572,110.392258 
z"/>
<path fill="#A52831" opacity="1.000000" stroke="none" 
	d="
M467.404419,45.580582 
	C466.979858,44.932610 466.981750,44.365185 466.985352,43.514095 
	C470.431030,42.658310 473.890564,42.164013 477.311401,41.476807 
	C478.734161,41.190990 480.225739,40.720600 481.414490,39.927315 
	C482.980530,38.882210 484.682037,36.121532 485.617645,36.408173 
	C488.483063,37.286072 491.010284,39.267941 493.669006,40.820469 
	C493.601532,41.458752 493.534058,42.097038 493.466583,42.735321 
	C484.921356,43.710590 476.376099,44.685863 467.404419,45.580582 
z"/>
<path fill="#1B0707" opacity="1.000000" stroke="none" 
	d="
M559.313904,47.777206 
	C558.715149,47.341484 558.421143,46.666603 558.042114,45.729111 
	C568.053833,46.652252 578.150452,47.838013 588.648926,49.146202 
	C588.603943,50.075951 588.157104,50.883263 587.492798,51.866516 
	C583.729858,48.641315 579.681641,48.889862 576.990112,52.673855 
	C575.357971,54.968506 568.578491,54.435490 565.829590,51.388805 
	C566.397888,50.449440 567.002136,49.920525 567.606384,49.391605 
	C567.595093,48.917049 567.583862,48.442490 567.572571,47.967930 
	C564.921265,47.824638 562.269958,47.681347 559.313904,47.777206 
z"/>
<path fill="#A52831" opacity="1.000000" stroke="none" 
	d="
M350.898773,110.037575 
	C351.877350,107.617516 353.357910,105.286591 356.236053,107.111351 
	C359.260742,109.029007 361.903534,111.601273 364.441498,114.157310 
	C364.709076,114.426765 363.346924,117.314934 362.384705,117.553886 
	C361.157684,117.858589 359.290100,117.033585 358.191376,116.109581 
	C355.747406,114.054283 353.610016,111.634415 351.102600,109.714417 
	C350.857483,110.065704 350.933533,110.019760 350.898773,110.037575 
z"/>
<path fill="#99262F" opacity="1.000000" stroke="none" 
	d="
M661.019470,73.894943 
	C654.367859,72.397148 647.794739,70.697975 641.936401,67.163834 
	C642.144043,66.495583 642.351746,65.827332 642.559387,65.159081 
	C648.560425,67.114655 654.561523,69.070221 660.823730,71.627853 
	C661.063110,72.784920 661.041321,73.339928 661.019470,73.894943 
z"/>
<path fill="#99262F" opacity="1.000000" stroke="none" 
	d="
M346.396606,93.054985 
	C345.982300,92.711060 345.964539,92.413513 345.919312,91.669708 
	C346.770416,90.500793 348.073090,89.954903 348.459839,89.027184 
	C351.260376,82.308609 355.350403,84.774864 359.773834,87.601501 
	C360.041931,87.895180 359.984772,87.825768 359.987732,87.786720 
	C355.591522,89.532234 351.192352,91.316803 346.396606,93.054985 
z"/>
<path fill="#A52831" opacity="1.000000" stroke="none" 
	d="
M332.843201,96.058540 
	C332.561462,96.094498 332.278534,96.111954 331.782257,96.094040 
	C329.301575,93.136742 327.033081,90.196335 324.577271,86.980225 
	C324.609894,86.444672 324.829773,86.184837 325.768372,85.541168 
	C334.968964,87.014259 335.805786,87.921463 334.426392,94.165619 
	C333.752106,94.905067 333.297668,95.481804 332.843201,96.058540 
z"/>
<path fill="#99262F" opacity="1.000000" stroke="none" 
	d="
M647.025757,102.833069 
	C650.068970,103.859680 652.761414,104.819687 655.453857,105.779694 
	C655.309326,106.306053 655.164734,106.832405 655.020203,107.358765 
	C651.487610,107.912888 648.345642,106.375969 645.237244,104.658966 
	C645.716492,104.028137 646.195740,103.397301 647.025757,102.833069 
z"/>
<path fill="#AD2934" opacity="1.000000" stroke="none" 
	d="
M661.282837,74.029495 
	C661.041321,73.339928 661.063110,72.784920 661.090210,71.813171 
	C662.470459,72.269417 663.845398,73.142387 664.550720,74.382065 
	C663.487793,74.631142 663.094482,74.513519 662.701233,74.395905 
	C662.316223,74.318619 661.931213,74.241333 661.282837,74.029495 
z"/>
<path fill="#99262F" opacity="1.000000" stroke="none" 
	d="
M664.437256,75.012817 
	C664.870667,75.483894 664.688843,75.579826 664.282104,75.579819 
	C664.116089,75.594955 664.067261,75.551414 664.067261,75.551422 
	C663.758972,75.301720 663.450745,75.052017 662.921875,74.599106 
	C663.094482,74.513519 663.487793,74.631142 664.437256,75.012817 
z"/>
<path fill="#99262F" opacity="1.000000" stroke="none" 
	d="
M663.843018,74.940262 
	C664.044189,74.774567 664.307495,74.922508 664.685669,75.299721 
	C664.835571,75.466621 664.446045,75.461525 664.256653,75.506470 
	C664.067261,75.551414 664.116089,75.594955 664.126343,75.644119 
	C664.071228,75.526024 664.005737,75.358772 663.843018,74.940262 
z"/>
<path fill="#99262F" opacity="1.000000" stroke="none" 
	d="
M679.944458,75.752968 
	C679.775940,75.724945 679.798157,75.465897 679.988281,75.105904 
	C680.057617,75.169350 680.050659,75.341682 679.944458,75.752968 
z"/>
<path fill="#1B0707" opacity="1.000000" stroke="none" 
	d="
M459.464966,80.855431 
	C457.736053,80.969116 456.388336,81.226730 455.105499,81.039589 
	C454.292175,80.920937 452.896332,80.074043 452.935852,79.668098 
	C453.086731,78.119034 453.541626,75.403000 454.193726,75.310364 
	C456.758728,74.945999 459.902496,74.641685 461.916718,75.845528 
	C463.229034,76.629860 463.612366,80.329170 459.464966,80.855431 
z"/>
<path fill="#1B0707" opacity="1.000000" stroke="none" 
	d="
M451.608704,69.767555 
	C452.447662,66.660614 458.813934,64.160286 460.398193,66.144196 
	C461.262787,67.226898 461.228363,70.701477 460.902832,70.800194 
	C457.838531,71.729370 454.486877,73.644821 451.608704,69.767555 
z"/>
<path fill="#1B0707" opacity="1.000000" stroke="none" 
	d="
M479.557373,66.955353 
	C476.678802,68.289429 473.794128,69.224777 470.909424,70.160133 
	C470.477173,68.474228 469.221832,66.410378 469.785889,65.181938 
	C470.922180,62.707291 477.994781,63.869976 479.557373,66.955353 
z"/>
<path fill="#0C0303" opacity="1.000000" stroke="none" 
	d="
M476.701965,78.861778 
	C474.477020,78.392822 472.669220,77.853546 470.861389,77.314270 
	C471.433441,75.888664 471.861084,73.340294 472.604156,73.244743 
	C474.978180,72.939461 478.316742,72.679268 479.691528,74.026085 
	C481.258911,75.561668 480.431610,78.459801 476.701965,78.861778 
z"/>
<path fill="#1B0707" opacity="1.000000" stroke="none" 
	d="
M578.704712,90.884888 
	C576.974121,90.847504 575.412415,91.134705 574.398071,90.519417 
	C573.309937,89.859444 572.736633,88.350800 571.938660,87.212517 
	C573.037537,86.482948 574.052307,85.488312 575.260925,85.104385 
	C576.300781,84.774101 577.669678,84.863937 578.699341,85.265137 
	C580.177490,85.841057 581.479614,86.868576 582.856873,87.703339 
	C581.609436,88.739632 580.362000,89.775917 578.704712,90.884888 
z"/>
<path fill="#1B0707" opacity="1.000000" stroke="none" 
	d="
M577.789917,77.449707 
	C579.182434,77.620895 580.306641,77.510506 581.116882,77.962662 
	C582.216492,78.576241 583.075745,79.620461 584.038086,80.479965 
	C582.975220,81.265419 582.009705,82.418037 580.822021,82.733131 
	C579.632690,83.048683 578.078003,82.831863 576.943542,82.296867 
	C575.510071,81.620911 574.339844,80.387016 573.056030,79.393799 
	C574.497925,78.735458 575.939880,78.077118 577.789917,77.449707 
z"/>
<path fill="#1B0707" opacity="1.000000" stroke="none" 
	d="
M555.240723,76.432480 
	C558.010681,76.047279 560.627869,75.805260 563.169617,76.138855 
	C563.922058,76.237617 564.796326,77.910942 564.945068,78.957878 
	C565.010681,79.419601 563.067505,80.814667 562.613770,80.594742 
	C560.082520,79.367805 555.239258,82.543869 555.240723,76.432480 
z"/>
<path fill="#1B0707" opacity="1.000000" stroke="none" 
	d="
M563.254395,83.837341 
	C563.097107,85.406044 562.423706,87.956085 562.061707,87.912621 
	C559.459717,87.600151 556.920959,86.761330 554.362122,86.089539 
	C555.079529,85.059967 555.700195,83.257721 556.533508,83.153328 
	C558.598022,82.894699 560.759705,83.412331 563.254395,83.837341 
z"/>
<path fill="#0C0303" opacity="1.000000" stroke="none" 
	d="
M334.646240,94.002907 
	C335.805786,87.921463 334.968964,87.014259 326.098328,85.151505 
	C325.985107,84.217087 326.048096,82.633354 326.569977,82.464050 
	C330.579834,81.163170 334.678802,80.136955 339.109009,79.114616 
	C339.818573,81.299202 339.994568,83.442665 340.555054,85.480377 
	C341.833466,90.128098 340.969940,93.518044 335.317230,94.573578 
	C334.887451,94.434555 334.646240,94.002907 334.646240,94.002907 
z"/>
<path fill="#99262F" opacity="1.000000" stroke="none" 
	d="
M334.426392,94.165619 
	C334.646240,94.002907 334.887451,94.434555 334.971008,94.667297 
	C334.516388,95.213417 333.978149,95.526810 333.141571,95.949371 
	C333.297668,95.481804 333.752106,94.905067 334.426392,94.165619 
z"/>
<path fill="#1B0707" opacity="1.000000" stroke="none" 
	d="
M575.193848,60.172611 
	C572.410522,60.198341 569.951477,60.208000 567.565491,59.795383 
	C566.762390,59.656494 566.144775,58.444736 565.442383,57.723320 
	C566.286743,57.203007 567.146851,56.223804 567.972290,56.252201 
	C570.080078,56.324692 572.238098,56.646336 574.233826,57.301556 
	C574.894592,57.518494 575.121460,59.057144 575.193848,60.172611 
z"/>
</svg>