<svg xmlns="http://www.w3.org/2000/svg" viewBox="0 0 512 512" role="img" aria-label="ShoreVest tree logo">
  <g fill="none" stroke="#b3213f" stroke-linecap="round" stroke-linejoin="round" vector-effect="non-scaling-stroke">
    <circle cx="256" cy="256" r="214" stroke-width="20"/>
    <path d="M256 96v374" stroke-width="14"/>

    <path d="M256 154l-42-39" stroke-width="12"/>
    <path d="M256 154l30-54" stroke-width="12"/>
    <path d="M256 154l41-34" stroke-width="12"/>

    <path d="M256 182l-80-44" stroke-width="13"/>
    <path d="M256 182l98-52" stroke-width="13"/>

    <path d="M256 232l-120-24" stroke-width="15"/>
    <path d="M256 224l132-18" stroke-width="15"/>

    <path d="M256 276l-134 10" stroke-width="15"/>
    <path d="M256 272l156-46" stroke-width="15"/>

    <path d="M256 332l-106 18" stroke-width="15"/>
    <path d="M256 330l122 10" stroke-width="15"/>

    <path d="M124 406h104" stroke-width="10"/>
    <path d="M140 424h88" stroke-width="10"/>
    <path d="M162 442h66" stroke-width="10"/>

    <path d="M284 406h104" stroke-width="10"/>
    <path d="M284 424h88" stroke-width="10"/>
    <path d="M284 442h66" stroke-width="10"/>
  </g>
</svg>
