<svg xmlns="http://www.w3.org/2000/svg" viewBox="0 0 1024 1024" width="1024" height="1024">
  <path d="M 548.0 823.5 L 483.0 823.5 L 449.0 818.5 L 413.0 809.5 L 377.0 796.5 L 348.0 782.5 L 301.0 751.5 L 282.0 735.5 L 252.5 705.0 L 228.5 674.0 L 211.5 647.0 L 194.5 613.0 L 180.5 575.0 L 173.5 547.0 L 168.5 516.0 L 166.5 483.0 L 167.5 450.0 L 172.5 412.0 L 179.5 382.0 L 192.5 345.0 L 208.5 312.0 L 227.5 282.0 L 243.5 261.0 L 276.0 226.5 L 298.0 207.5 L 328.0 186.5 L 349.0 174.5 L 379.0 160.5 L 409.0 149.5 L 435.0 142.5 L 479.0 135.5 L 543.0 135.5 L 574.0 139.5 L 611.0 148.5 L 649.0 162.5 L 676.0 175.5 L 697.0 187.5 L 732.0 212.5 L 746.0 224.5 L 778.5 258.0 L 801.5 288.0 L 817.5 314.0 L 833.5 347.0 L 846.5 383.0 L 852.5 406.0 L 858.5 442.0 L 860.5 465.0 L 859.5 512.0 L 855.5 543.0 L 846.5 581.0 L 835.5 612.0 L 818.5 648.0 L 799.5 679.0 L 780.5 704.0 L 746.0 739.5 L 734.0 749.5 L 703.0 771.5 L 684.0 782.5 L 657.0 795.5 L 625.0 807.5 L 592.0 816.5 Z M 544.0 791.5 L 580.0 785.5 L 606.0 778.5 L 636.0 767.5 L 661.0 755.5 L 707.0 725.5 L 728.0 707.5 L 753.5 681.0 L 769.5 660.0 L 790.5 626.0 L 811.5 576.0 L 818.5 550.0 L 823.5 521.0 L 825.5 497.0 L 824.5 450.0 L 821.5 427.0 L 812.5 389.0 L 800.5 356.0 L 784.5 324.0 L 769.5 300.0 L 747.5 272.0 L 728.0 251.5 L 705.0 231.5 L 664.0 204.5 L 628.0 187.5 L 595.0 176.5 L 569.0 170.5 L 536.0 166.5 L 476.0 167.5 L 423.0 178.5 L 390.0 190.5 L 367.0 201.5 L 343.0 215.5 L 317.0 234.5 L 303.0 246.5 L 270.5 281.0 L 238.5 329.0 L 225.5 356.0 L 213.5 390.0 L 207.5 415.0 L 202.5 453.0 L 201.5 484.0 L 203.5 512.0 L 209.5 548.0 L 215.5 570.0 L 227.5 602.0 L 240.5 628.0 L 268.5 670.0 L 302.0 706.5 L 335.0 733.5 L 360.0 749.5 L 389.0 764.5 L 429.0 779.5 L 456.0 786.5 L 479.0 790.5 L 500.0 791.5 L 500.5 658.0 L 441.0 647.5 L 400.0 637.5 L 322.0 612.5 L 319.5 608.0 L 321.0 606.5 L 335.0 605.5 L 414.0 611.5 L 470.0 621.5 L 500.0 630.5 L 500.5 571.0 L 432.0 549.5 L 356.0 518.5 L 304.0 492.5 L 293.0 485.5 L 288.5 479.0 L 290.0 477.5 L 303.0 477.5 L 315.0 479.5 L 375.0 495.5 L 454.0 525.5 L 499.0 547.5 L 500.5 546.0 L 500.0 468.5 L 468.0 463.5 L 420.0 449.5 L 373.0 428.5 L 358.0 419.5 L 354.5 414.0 L 358.0 411.5 L 369.0 411.5 L 426.0 419.5 L 468.0 431.5 L 499.0 446.5 L 500.5 445.0 L 500.5 392.0 L 463.0 373.5 L 427.0 350.5 L 390.5 318.0 L 386.5 312.0 L 386.5 309.0 L 390.0 306.5 L 397.0 307.5 L 423.0 316.5 L 464.0 338.5 L 500.0 365.5 L 500.5 323.0 L 460.5 282.0 L 439.5 254.0 L 432.5 240.0 L 435.0 237.5 L 441.0 238.5 L 461.0 250.5 L 483.0 268.5 L 509.0 296.5 L 515.5 263.0 L 527.5 220.0 L 537.5 194.0 L 544.0 186.5 L 546.5 189.0 L 543.5 227.0 L 536.5 267.0 L 528.5 298.0 L 531.5 297.0 L 559.5 260.0 L 580.0 239.5 L 584.0 238.5 L 585.5 244.0 L 576.5 263.0 L 558.5 292.0 L 542.5 313.0 L 527.5 328.0 L 527.5 348.0 L 563.0 319.5 L 590.0 302.5 L 634.0 282.5 L 638.5 284.0 L 638.5 288.0 L 620.5 311.0 L 595.0 334.5 L 564.0 356.5 L 527.5 376.0 L 527.5 424.0 L 570.0 407.5 L 623.0 395.5 L 653.0 392.5 L 691.0 392.5 L 709.0 395.5 L 710.5 399.0 L 707.0 402.5 L 679.0 416.5 L 642.0 429.5 L 580.0 442.5 L 551.0 445.5 L 528.0 445.5 L 527.5 516.0 L 593.0 491.5 L 641.0 477.5 L 720.0 460.5 L 740.0 459.5 L 741.5 461.0 L 740.0 465.5 L 723.0 475.5 L 696.0 488.5 L 653.0 505.5 L 602.0 521.5 L 566.0 530.5 L 527.5 537.0 L 528.0 584.5 L 567.0 585.5 L 604.0 590.5 L 660.0 605.5 L 683.0 614.5 L 689.5 619.0 L 689.5 621.0 L 686.0 623.5 L 676.0 625.5 L 621.0 627.5 L 580.0 622.5 L 550.0 615.5 L 527.5 608.0 L 527.5 792.0 Z M 482.5 713.0 L 479.0 716.5 L 339.0 716.5 L 335.5 714.0 L 334.5 709.0 L 340.0 704.5 L 478.0 704.5 L 482.5 708.0 Z M 690.5 713.0 L 687.0 716.5 L 548.0 716.5 L 543.5 710.0 L 549.0 704.5 L 686.0 704.5 L 690.5 708.0 Z M 482.5 738.0 L 477.0 741.5 L 373.0 741.5 L 367.5 738.0 L 366.5 733.0 L 372.0 728.5 L 478.0 728.5 L 482.5 732.0 Z M 660.5 736.0 L 654.0 741.5 L 551.0 741.5 L 545.5 739.0 L 543.5 733.0 L 549.0 728.5 L 655.0 728.5 L 659.5 732.0 Z M 482.5 762.0 L 479.0 765.5 L 475.0 766.5 L 424.0 766.5 L 417.0 764.5 L 414.5 762.0 L 414.5 758.0 L 419.0 753.5 L 478.0 753.5 L 482.5 757.0 Z M 611.5 762.0 L 608.0 765.5 L 604.0 766.5 L 555.0 766.5 L 548.0 765.5 L 544.5 762.0 L 543.5 758.0 L 548.0 753.5 L 607.0 753.5 L 611.5 757.0 Z" fill="#b3213f" fill-rule="evenodd"/>
</svg>