<svg xmlns="http://www.w3.org/2000/svg" viewBox="0 0 1024 1024" width="1024" height="1024" role="img" aria-label="新岸资本 logo">
  <title>新岸资本 logo</title>

  <defs>
    <style>
      .mark {
        fill: none;
        stroke: #be1e47;
        stroke-width: 22;
        stroke-linecap: round;
        stroke-linejoin: round;
      }
      .word {
        fill: #be1e47;
        font-family: 'Noto Serif SC', 'Songti SC', 'STSong', serif;
        font-size: 78px;
        font-weight: 700;
        letter-spacing: 16px;
      }
    </style>
    <path id="word-arc" d="M338 170A255 255 0 0 1 686 170" />
  </defs>

  <g class="mark">
    <path d="M160 536A352 352 0 0 1 296 250" />
    <path d="M864 536A352 352 0 0 0 728 250" />
    <path d="M160 536A352 352 0 0 0 864 536" />

    <path d="M512 265V830" />

    <path d="M512 316l-56-58" />
    <path d="M512 316l10-84" />
    <path d="M512 316l70-64" />

    <path d="M512 388c-70-16-122-38-206-54" />
    <path d="M512 388c58-12 132-42 236-66" />

    <path d="M512 490c-86-18-172-46-260-74" />
    <path d="M512 490c80-14 172-40 272-76" />

    <path d="M512 618c-98-10-196-20-250-12" />
    <path d="M512 618c86 8 176 2 244-18" />

    <path d="M348 738h130" />
    <path d="M548 738h164" />
    <path d="M368 772h88" />
    <path d="M556 772h102" />
  </g>

  <text class="word">
    <textPath href="#word-arc" startOffset="50%" text-anchor="middle">新岸资本</textPath>
  </text>
</svg>
