<svg xmlns="http://www.w3.org/2000/svg" viewBox="0 0 512 512" width="512" height="512" role="img" aria-label="ShoreVest logo">
  <title>ShoreVest logo</title>
  <g fill="none" stroke="#c91f32" stroke-width="14" stroke-linecap="round" stroke-linejoin="round">
    <!-- Open ring -->
    <path d="M110 196 A150 150 0 1 0 402 196" />
    <!-- Trunk -->
    <path d="M256 355 L256 150" />
    <!-- Branches -->
    <path d="M256 182 L229 153" />
    <path d="M256 182 L283 153" />
    <path d="M256 203 L214 179" />
    <path d="M256 203 L298 179" />
    <path d="M256 232 L182 214" />
    <path d="M256 232 L330 214" />
    <path d="M256 262 L162 254" />
    <path d="M256 262 L350 254" />
    <!-- Ground lines -->
    <path d="M196 326 H244" />
    <path d="M268 326 H316" />
    <path d="M206 341 H236" />
    <path d="M276 341 H306" />
  </g>

  <path id="arc" d="M186 135 A95 95 0 0 1 326 135" fill="none" />
  <text fill="#c91f32" font-size="30" font-family="'Noto Serif SC','Songti SC','STSong',serif" letter-spacing="5">
    <textPath href="#arc" startOffset="50%" text-anchor="middle">新岸资本</textPath>
  </text>
</svg>
