<svg xmlns="http://www.w3.org/2000/svg" viewBox="0 0 512 512" width="512" height="512" role="img" aria-label="ShoreVest logo">
  <title>ShoreVest logo</title>
  <g fill="none" stroke="#be1e2d" stroke-linecap="round" stroke-linejoin="round">
    <!-- outer ring with top opening -->
    <path d="M133 292a123 123 0 0 0 246 0" stroke-width="12"/>
    <path d="M133 292a123 123 0 0 1 52-100" stroke-width="12"/>
    <path d="M379 292a123 123 0 0 0-52-100" stroke-width="12"/>

    <!-- trunk -->
    <path d="M256 170v236" stroke-width="11"/>

    <!-- crown and branches -->
    <path d="M256 188l-24-26" stroke-width="7"/>
    <path d="M256 188l8-46" stroke-width="7"/>
    <path d="M256 188l30-28" stroke-width="7"/>

    <path d="M256 212c-20-10-42-20-62-24" stroke-width="9"/>
    <path d="M256 212c18-8 37-19 56-30" stroke-width="9"/>

    <path d="M256 244c-32-8-65-20-86-26" stroke-width="9"/>
    <path d="M256 244c30-7 64-17 89-27" stroke-width="9"/>

    <path d="M256 281c-39-5-78-11-102-8" stroke-width="9"/>
    <path d="M256 281c36 2 76-1 101-9" stroke-width="9"/>

    <!-- roots -->
    <path d="M196 339h45" stroke-width="6"/>
    <path d="M271 339h45" stroke-width="6"/>
    <path d="M210 352h25" stroke-width="6"/>
    <path d="M278 352h25" stroke-width="6"/>
  </g>

  <path id="shorevest-arc" d="M206 152a76 76 0 0 1 100 0" fill="none"/>
  <text fill="#be1e2d" font-size="34" font-family="'Noto Serif SC','Songti SC','STSong',serif" letter-spacing="7">
    <textPath href="#shorevest-arc" startOffset="50%" text-anchor="middle">新岸资本</textPath>
  </text>
</svg>
