<svg xmlns="http://www.w3.org/2000/svg" viewBox="0 0 512 512" role="img" aria-label="ShoreVest icon">
  <rect width="512" height="512" fill="#f5f2f2"/>
  <g fill="none" stroke="#c91f32" stroke-linecap="round" stroke-linejoin="round">
    <path d="M118 300a138 138 0 1 0 276 0" stroke-width="18"/>
    <path d="M188 161a132 132 0 0 0-30 24" stroke-width="18"/>
    <path d="M324 161a132 132 0 0 1 30 24" stroke-width="18"/>

    <path d="M256 373V154" stroke-width="16"/>
    <path d="M256 184l-30-32" stroke-width="13"/>
    <path d="M256 184l30-32" stroke-width="13"/>
    <path d="M256 211l-45-27" stroke-width="13"/>
    <path d="M256 211l45-27" stroke-width="13"/>
    <path d="M256 243l-80-19" stroke-width="13"/>
    <path d="M256 243l80-19" stroke-width="13"/>
    <path d="M256 275h-84" stroke-width="13"/>
    <path d="M256 275h84" stroke-width="13"/>
    <path d="M198 334h46" stroke-width="10"/>
    <path d="M268 334h46" stroke-width="10"/>
  </g>
</svg>
