<svg xmlns="http://www.w3.org/2000/svg" viewBox="0 0 512 512" role="img" aria-label="新庫廣本 logo">
  <title>新庫廣本 logo</title>
  <g fill="none" stroke="#b3213f" stroke-linecap="round" stroke-linejoin="round" stroke-width="14">
    <path d="M56 268A200 200 0 0 1 142 108" />
    <path d="M456 268A200 200 0 0 0 370 108" />
    <path d="M56 268A200 200 0 0 0 456 268" />
  </g>

  <g fill="none" stroke="#b3213f" stroke-linecap="round" stroke-linejoin="round">
    <!-- Outer ring -->
    <path d="M57 272A199 199 0 0 1 145 111" stroke-width="22"/>
    <path d="M455 272A199 199 0 0 0 367 111" stroke-width="22"/>
    <path d="M57 272A199 199 0 0 0 455 272" stroke-width="22"/>

    <!-- Trunk -->
    <path d="M256 122V432" stroke-width="20"/>

    <!-- Top branches -->
    <path d="M256 170L214 130" stroke-width="18"/>
    <path d="M256 170L260 114" stroke-width="18"/>
    <path d="M256 170L302 136" stroke-width="18"/>

    <!-- Middle branches -->
    <path d="M256 222C219 205 186 188 150 176" stroke-width="16"/>
    <path d="M256 222C298 207 341 192 388 184" stroke-width="16"/>

    <!-- Lower branches -->
    <path d="M256 282C209 265 166 248 116 238" stroke-width="16"/>
    <path d="M256 282C305 268 356 252 408 242" stroke-width="16"/>

    <!-- Bottom branches -->
    <path d="M256 342C208 336 161 330 135 326" stroke-width="15"/>
    <path d="M256 342C296 348 337 352 380 352" stroke-width="15"/>

    <!-- Base lines -->
    <path d="M158 392H226" stroke-width="12"/>
    <path d="M286 392H354" stroke-width="12"/>
    <path d="M186 412H224" stroke-width="10"/>
    <path d="M286 412H324" stroke-width="10"/>
  </g>

  <path id="word-arc" d="M122 133A170 170 0 0 1 390 133" fill="none" />
  <text fill="#b3213f" font-family="'Noto Serif SC','Songti SC','STSong',serif" font-size="42" font-weight="700" letter-spacing="8">
    <textPath href="#word-arc" startOffset="50%" text-anchor="middle">新庫廣本</textPath>
  </text>
</svg>
