<svg xmlns="http://www.w3.org/2000/svg" viewBox="0 0 512 512" role="img" aria-label="新岸资本 icon">
  <rect width="512" height="512" fill="#000"/>
  <g fill="none" stroke-linecap="round" stroke-linejoin="round">
    <g stroke="#f4e9ec" stroke-width="20">
      <path d="M128 312a130 130 0 0 1 58-108"/>
      <path d="M384 312a130 130 0 0 0-58-108"/>
      <path d="M128 312a128 128 0 0 0 256 0"/>

      <path d="M256 194v204"/>
      <path d="M256 214l-28-30"/>
      <path d="M256 214l8-48"/>
      <path d="M256 214l34-31"/>

      <path d="M256 240c-24-10-50-18-72-23"/>
      <path d="M256 240c20-8 42-18 66-30"/>
      <path d="M256 270c-34-7-69-17-94-22"/>
      <path d="M256 270c31-6 67-16 94-23"/>
      <path d="M256 302c-41-4-81-8-106-5"/>
      <path d="M256 302c38 3 78 0 104-7"/>

      <path d="M182 346h54"/>
      <path d="M276 346h54"/>
      <path d="M194 360h34"/>
      <path d="M284 360h34"/>
    </g>
    <g stroke="#be1e2d" stroke-width="13">
      <path d="M128 312a130 130 0 0 1 58-108"/>
      <path d="M384 312a130 130 0 0 0-58-108"/>
      <path d="M128 312a128 128 0 0 0 256 0"/>

      <path d="M256 194v204"/>
      <path d="M256 214l-28-30"/>
      <path d="M256 214l8-48"/>
      <path d="M256 214l34-31"/>

      <path d="M256 240c-24-10-50-18-72-23"/>
      <path d="M256 240c20-8 42-18 66-30"/>
      <path d="M256 270c-34-7-69-17-94-22"/>
      <path d="M256 270c31-6 67-16 94-23"/>
      <path d="M256 302c-41-4-81-8-106-5"/>
      <path d="M256 302c38 3 78 0 104-7"/>

      <path d="M182 346h54"/>
      <path d="M276 346h54"/>
      <path d="M194 360h34"/>
      <path d="M284 360h34"/>
    </g>
  </g>
</svg>
