<svg xmlns="http://www.w3.org/2000/svg" viewBox="0 0 512 512" role="img" aria-label="ShoreVest tree logo">
  <circle cx="256" cy="256" r="238" fill="none" stroke="#b3213f" stroke-width="16"/>
  <g fill="none" stroke="#b3213f" stroke-linecap="round" stroke-linejoin="round">
    <path d="M256 90v404" stroke-width="14"/>
    <path d="M256 134l-34-30" stroke-width="10"/>
    <path d="M256 134l34-28" stroke-width="10"/>
    <path d="M256 170l-66-42" stroke-width="12"/>
    <path d="M256 170l74-45" stroke-width="12"/>
    <path d="M256 218l-94-20" stroke-width="13"/>
    <path d="M256 210l116-10" stroke-width="13"/>
    <path d="M256 260l-122 14" stroke-width="13"/>
    <path d="M256 254l138-32" stroke-width="13"/>
    <path d="M256 310l-108 28" stroke-width="13"/>
    <path d="M256 304l126 18" stroke-width="13"/>
    <path d="M112 420h118" stroke-width="10"/>
    <path d="M132 444h98" stroke-width="10"/>
    <path d="M156 468h74" stroke-width="10"/>
    <path d="M282 420h118" stroke-width="10"/>
    <path d="M282 444h98" stroke-width="10"/>
    <path d="M282 468h74" stroke-width="10"/>
  </g>
</svg>
