<svg xmlns="http://www.w3.org/2000/svg" viewBox="0 0 512 512" role="img" aria-label="新庫廣本 icon">
  <title>新庫廣本 icon</title>
  <g fill="none" stroke="#be1e47" stroke-linecap="round" stroke-linejoin="round" stroke-width="14">
    <path d="M56 268A200 200 0 0 1 142 108" />
    <path d="M456 268A200 200 0 0 0 370 108" />
    <path d="M56 268A200 200 0 0 0 456 268" />

    <path d="M256 118V432" />

    <path d="M256 168l-46-44" />
    <path d="M256 168l4-58" />
    <path d="M256 168l56-40" />

    <path d="M256 218c-46-20-78-42-104-58" />
    <path d="M256 218c46-16 88-34 132-50" />

    <path d="M256 278c-54-22-100-44-138-60" />
    <path d="M256 278c54-14 110-34 156-54" />

    <path d="M256 342c-52-8-108-14-140-12" />
    <path d="M256 342c40 8 90 14 114 14" />

    <path d="M160 392h68" />
    <path d="M282 392h68" />
    <path d="M186 412h38" />
    <path d="M282 412h42" />
  </g>
</svg>
