<svg xmlns="http://www.w3.org/2000/svg" viewBox="0 0 512 512" role="img" aria-label="ShoreVest icon">
  <rect width="512" height="512" fill="#f5f2f2"/>
  <g fill="none" stroke="#bf1e33" stroke-linecap="round" stroke-linejoin="round">
    <path d="M143 190a142 142 0 1 0 226 0" stroke-width="17"/>

    <path d="M256 369V166" stroke-width="15"/>
    <path d="M256 193l-35-33" stroke-width="12"/>
    <path d="M256 193l4-46" stroke-width="12"/>
    <path d="M256 193l36-31" stroke-width="12"/>
    <path d="M256 220l-49-27" stroke-width="12"/>
    <path d="M256 220l48-25" stroke-width="12"/>
    <path d="M256 252l-82-19" stroke-width="12"/>
    <path d="M256 252l84-18" stroke-width="12"/>
    <path d="M256 287l-93-7" stroke-width="12"/>
    <path d="M256 287l94-6" stroke-width="12"/>
    <path d="M193 334h46" stroke-width="9"/>
    <path d="M273 334h46" stroke-width="9"/>
    <path d="M209 346h26" stroke-width="9"/>
    <path d="M277 346h26" stroke-width="9"/>
  </g>
</svg>
