<svg xmlns="http://www.w3.org/2000/svg" viewBox="0 0 64 64" role="img" aria-label="ShoreVest circle logo">
  <title>ShoreVest circle logo</title>
  <circle cx="32" cy="32" r="30" fill="#ffffff"/>
  <circle cx="32" cy="32" r="28" fill="none" stroke="#b3213f" stroke-width="3"/>

  <g fill="none" stroke="#b3213f" stroke-linecap="round" stroke-linejoin="round">
    <path d="M32 16V50" stroke-width="2.8"/>

    <path d="M32 21L27.6 17" stroke-width="2.4"/>
    <path d="M32 21L32.6 15" stroke-width="2.4"/>
    <path d="M32 21L36.8 17.8" stroke-width="2.4"/>

    <path d="M32 27C28.8 25.6 25.8 24.2 22.8 23" stroke-width="2.2"/>
    <path d="M32 27C35.4 25.8 39 24.6 42.8 23.8" stroke-width="2.2"/>

    <path d="M32 34C28 32.6 24 31.4 20.4 30.6" stroke-width="2.2"/>
    <path d="M32 34C36.2 32.8 40.2 31.4 44.2 30.6" stroke-width="2.2"/>

    <path d="M32 41C28.4 40.6 24.8 40.2 22.6 39.8" stroke-width="2"/>
    <path d="M32 41C35.2 41.4 38.4 41.8 41.8 41.8" stroke-width="2"/>

    <path d="M24.4 46.4H30" stroke-width="1.8"/>
    <path d="M34 46.4H39.6" stroke-width="1.8"/>
    <path d="M26.6 48.6H30" stroke-width="1.6"/>
    <path d="M34 48.6H37.4" stroke-width="1.6"/>
  </g>
</svg>
